<svg width="7" height="12" viewBox="0 0 7 12" fill="none" xmlns="http://www.w3.org/2000/svg">
<path d="M2.25981 6.85411C2.21582 6.85411 1.24792 6.85411 0.807967 6.85411C0.573326 6.85411 0.5 6.76541 0.5 6.54365C0.5 5.95229 0.5 5.34615 0.5 4.75478C0.5 4.51824 0.587991 4.44432 0.807967 4.44432H2.25981C2.25981 4.39997 2.25981 3.5425 2.25981 3.14333C2.25981 2.55197 2.36247 1.99017 2.65577 1.47273C2.96374 0.940508 3.40369 0.585692 3.96097 0.378716C4.32759 0.245659 4.69422 0.186523 5.09018 0.186523H6.52736C6.73267 0.186523 6.82066 0.275228 6.82066 0.482204V2.16758C6.82066 2.37456 6.73267 2.46326 6.52736 2.46326C6.1314 2.46326 5.73544 2.46326 5.33949 2.47805C4.94353 2.47805 4.73822 2.67024 4.73822 3.08419C4.72355 3.52771 4.73822 3.95645 4.73822 4.41475H6.43937C6.67401 4.41475 6.762 4.50346 6.762 4.74V6.52887C6.762 6.76541 6.68868 6.83933 6.43937 6.83933C5.91143 6.83933 4.78221 6.83933 4.73822 6.83933V11.6589C4.73822 11.9102 4.66489 11.999 4.40092 11.999C3.78499 11.999 3.18372 11.999 2.56778 11.999C2.3478 11.999 2.25981 11.9102 2.25981 11.6885C2.25981 10.1362 2.25981 6.89847 2.25981 6.85411Z" fill="#212121"/>
</svg>
