<svg width="18" height="18" viewBox="0 0 18 18" fill="none" xmlns="http://www.w3.org/2000/svg">
<path fill-rule="evenodd" clip-rule="evenodd" d="M2.15901 4.40901C2.58097 3.98705 3.15326 3.75 3.75 3.75H12.75C13.3467 3.75 13.919 3.98705 14.341 4.40901C14.7629 4.83097 15 5.40326 15 6V6.12868C15.3134 6.2395 15.6014 6.41946 15.841 6.65901C16.2629 7.08097 16.5 7.65326 16.5 8.25V9.75C16.5 10.3467 16.2629 10.919 15.841 11.341C15.6014 11.5805 15.3134 11.7605 15 11.8713V12C15 12.5967 14.7629 13.169 14.341 13.591C13.919 14.0129 13.3467 14.25 12.75 14.25H3.75C3.15326 14.25 2.58097 14.0129 2.15901 13.591C1.73705 13.169 1.5 12.5967 1.5 12V6C1.5 5.40326 1.73705 4.83097 2.15901 4.40901ZM3.75 5.25C3.55109 5.25 3.36032 5.32902 3.21967 5.46967C3.07902 5.61032 3 5.80109 3 6V12C3 12.1989 3.07902 12.3897 3.21967 12.5303C3.36032 12.671 3.55109 12.75 3.75 12.75H12.75C12.9489 12.75 13.1397 12.671 13.2803 12.5303C13.421 12.3897 13.5 12.1989 13.5 12V11.25C13.5 10.8358 13.8358 10.5 14.25 10.5C14.4489 10.5 14.6397 10.421 14.7803 10.2803C14.921 10.1397 15 9.94891 15 9.75V8.25C15 8.05109 14.921 7.86032 14.7803 7.71967C14.6397 7.57902 14.4489 7.5 14.25 7.5C13.8358 7.5 13.5 7.16421 13.5 6.75V6C13.5 5.80109 13.421 5.61032 13.2803 5.46967C13.1397 5.32902 12.9489 5.25 12.75 5.25H3.75ZM5.25 6.75C5.66421 6.75 6 7.08579 6 7.5V10.5C6 10.9142 5.66421 11.25 5.25 11.25C4.83579 11.25 4.5 10.9142 4.5 10.5V7.5C4.5 7.08579 4.83579 6.75 5.25 6.75ZM8.25 6.75C8.66421 6.75 9 7.08579 9 7.5V10.5C9 10.9142 8.66421 11.25 8.25 11.25C7.83579 11.25 7.5 10.9142 7.5 10.5V7.5C7.5 7.08579 7.83579 6.75 8.25 6.75ZM11.25 6.75C11.6642 6.75 12 7.08579 12 7.5V10.5C12 10.9142 11.6642 11.25 11.25 11.25C10.8358 11.25 10.5 10.9142 10.5 10.5V7.5C10.5 7.08579 10.8358 6.75 11.25 6.75Z" fill="white"/>
</svg>
