<svg width="52" height="47" viewBox="0 0 52 47" fill="none" xmlns="http://www.w3.org/2000/svg">
<rect x="0.5" y="-9.49976" width="56" height="56" rx="28" fill="#0A2647"/>
<path d="M37.5 9.5C37.7652 9.5 38.0196 9.60536 38.2071 9.79289C38.3946 9.98043 38.5 10.2348 38.5 10.5V16C37.837 16 37.2011 16.2634 36.7322 16.7322C36.2634 17.2011 36 17.837 36 18.5C36 19.163 36.2634 19.7989 36.7322 20.2678C37.2011 20.7366 37.837 21 38.5 21V26.5C38.5 26.7652 38.3946 27.0196 38.2071 27.2071C38.0196 27.3946 37.7652 27.5 37.5 27.5H19.5C19.2348 27.5 18.9804 27.3946 18.7929 27.2071C18.6054 27.0196 18.5 26.7652 18.5 26.5V21C19.163 21 19.7989 20.7366 20.2678 20.2678C20.7366 19.7989 21 19.163 21 18.5C21 17.837 20.7366 17.2011 20.2678 16.7322C19.7989 16.2634 19.163 16 18.5 16V10.5C18.5 10.2348 18.6054 9.98043 18.7929 9.79289C18.9804 9.60536 19.2348 9.5 19.5 9.5H37.5Z" fill="#F9FAFC"/>
</svg>
