<svg width="17" height="17" viewBox="0 0 17 17" fill="none" xmlns="http://www.w3.org/2000/svg">
<path d="M14.3099 11.879V14.2396C14.31 14.4087 14.246 14.5714 14.1307 14.6951C14.0155 14.8187 13.8576 14.8941 13.689 14.9059C13.3973 14.9259 13.159 14.9366 12.9747 14.9366C7.07504 14.9366 2.29297 10.1545 2.29297 4.25489C2.29297 4.07063 2.30298 3.8323 2.32368 3.54055C2.33551 3.37194 2.41086 3.2141 2.53451 3.09887C2.65817 2.98364 2.82093 2.9196 2.98995 2.91968H5.35061C5.43342 2.91959 5.51331 2.95029 5.57475 3.00581C5.63619 3.06133 5.6748 3.13771 5.68308 3.2201C5.69844 3.37365 5.71246 3.49582 5.72581 3.58862C5.85849 4.51454 6.13038 5.41508 6.53228 6.25972C6.5957 6.39324 6.55431 6.5528 6.43414 6.63825L4.99344 7.66771C5.87432 9.72023 7.51002 11.3559 9.56255 12.2368L10.5907 10.7988C10.6327 10.74 10.694 10.6979 10.7639 10.6797C10.8338 10.6615 10.9079 10.6685 10.9732 10.6993C11.8177 11.1005 12.7181 11.3717 13.6436 11.5038C13.7364 11.5171 13.8586 11.5318 14.0108 11.5465C14.0931 11.5549 14.1693 11.5936 14.2247 11.655C14.2801 11.7165 14.31 11.7963 14.3099 11.879Z" fill="#F9FAFC"/>
</svg>
