<svg width="17" height="17" viewBox="0 0 17 17" fill="none" xmlns="http://www.w3.org/2000/svg">
<g clip-path="url(#clip0_278_3118)">
<path d="M1.39576 4.5887V3.58261C1.39698 3.40728 1.46713 3.23947 1.59105 3.11543C1.71496 2.99139 1.8827 2.92108 2.05803 2.91968H14.0857C14.4515 2.91968 14.7479 3.21676 14.7479 3.58261V14.2737C14.7467 14.449 14.6766 14.6168 14.5526 14.7409C14.4287 14.8649 14.261 14.9352 14.0857 14.9366H2.05803C1.88232 14.9364 1.71388 14.8665 1.5897 14.7422C1.46552 14.6179 1.39576 14.4494 1.39576 14.2737V13.6014H13.4127V5.79039L8.07184 10.5972L1.39576 4.5887ZM0.0605469 7.59293H3.39859V8.92815H0.0605469V7.59293ZM0.0605469 10.931H5.40141V12.2662H0.0605469V10.931Z" fill="#F9FAFC"/>
</g>
<defs>
<clipPath id="clip0_278_3118">
<rect width="16.0226" height="16.0226" fill="white" transform="translate(0.0605469 0.916992)"/>
</clipPath>
</defs>
</svg>
