<svg width="35" height="35" viewBox="0 0 35 35" fill="none" xmlns="http://www.w3.org/2000/svg">
<g clip-path="url(#clip0_278_2943)">
<path d="M17.4998 31.609C9.76664 31.609 3.49805 25.3404 3.49805 17.6072C3.49805 9.87406 9.76664 3.60547 17.4998 3.60547C25.233 3.60547 31.5016 9.87406 31.5016 17.6072C31.5016 25.3404 25.233 31.609 17.4998 31.609ZM10.4989 17.6072C10.4989 19.464 11.2365 21.2447 12.5494 22.5576C13.8624 23.8705 15.6431 24.6081 17.4998 24.6081C19.3566 24.6081 21.1373 23.8705 22.4502 22.5576C23.7631 21.2447 24.5007 19.464 24.5007 17.6072H21.7003C21.7003 18.7213 21.2578 19.7897 20.47 20.5775C19.6823 21.3652 18.6139 21.8078 17.4998 21.8078C16.3858 21.8078 15.3173 21.3652 14.5296 20.5775C13.7418 19.7897 13.2993 18.7213 13.2993 17.6072H10.4989Z" fill="#212121"/>
</g>
<defs>
<clipPath id="clip0_278_2943">
<rect width="33.6042" height="33.6042" fill="white" transform="translate(0.697266 0.805176)"/>
</clipPath>
</defs>
</svg>
