<svg width="52" height="46" viewBox="0 0 52 46" fill="none" xmlns="http://www.w3.org/2000/svg">
<rect x="0.5" y="-10" width="56" height="56" rx="28" fill="#0A2647"/>
<path d="M31.502 12.04H35.5019C35.7672 12.04 36.0215 12.1454 36.2091 12.3329C36.3966 12.5205 36.5019 12.7748 36.5019 13.04V29.04C36.5019 29.3052 36.3966 29.5595 36.2091 29.7471C36.0215 29.9346 35.7672 30.04 35.5019 30.04H17.502C17.2367 30.04 16.9824 29.9346 16.7948 29.7471C16.6073 29.5595 16.502 29.3052 16.502 29.04V13.04C16.502 12.7748 16.6073 12.5205 16.7948 12.3329C16.9824 12.1454 17.2367 12.04 17.502 12.04H21.502V10.04H23.502V12.04H29.502V10.04H31.502V12.04ZM18.502 18.04V28.04H34.5019V18.04H18.502ZM20.502 22.04H25.502V26.04H20.502V22.04Z" fill="#F9FAFC"/>
</svg>
