<svg width="52" height="47" viewBox="0 0 52 47" fill="none" xmlns="http://www.w3.org/2000/svg">
<rect x="0.501953" y="-9.49976" width="56" height="56" rx="28" fill="#0A2647"/>
<g clip-path="url(#clip0_278_3024)">
<path d="M37.5 14.5004C38.0304 14.5004 38.5391 14.7111 38.9142 15.0862C39.2893 15.4612 39.5 15.97 39.5 16.5004V20.5004C39.5 21.0308 39.2893 21.5395 38.9142 21.9146C38.5391 22.2897 38.0304 22.5004 37.5 22.5004H36.438C36.1942 24.4337 35.2533 26.2116 33.7917 27.5004C32.3302 28.7892 30.4486 29.5004 28.5 29.5004V27.5004C30.0913 27.5004 31.6174 26.8682 32.7426 25.743C33.8679 24.6178 34.5 23.0917 34.5 21.5004V15.5004C34.5 13.9091 33.8679 12.383 32.7426 11.2577C31.6174 10.1325 30.0913 9.50039 28.5 9.50039C26.9087 9.50039 25.3826 10.1325 24.2574 11.2577C23.1321 12.383 22.5 13.9091 22.5 15.5004V22.5004H19.5C18.9696 22.5004 18.4609 22.2897 18.0858 21.9146C17.7107 21.5395 17.5 21.0308 17.5 20.5004V16.5004C17.5 15.97 17.7107 15.4612 18.0858 15.0862C18.4609 14.7111 18.9696 14.5004 19.5 14.5004H20.562C20.806 12.5673 21.7471 10.7897 23.2086 9.50106C24.6701 8.21247 26.5516 7.50146 28.5 7.50146C30.4484 7.50146 32.3299 8.21247 33.7914 9.50106C35.2529 10.7897 36.194 12.5673 36.438 14.5004H37.5ZM24.26 22.2854L25.32 20.5894C26.2731 21.1864 27.3754 21.5022 28.5 21.5004C29.6246 21.5022 30.7269 21.1864 31.68 20.5894L32.74 22.2854C31.4693 23.0815 29.9995 23.5027 28.5 23.5004C27.0005 23.5027 25.5307 23.0815 24.26 22.2854Z" fill="#F9FAFC"/>
</g>
<defs>
<clipPath id="clip0_278_3024">
<rect width="24" height="24" fill="white" transform="translate(16.502 6.5)"/>
</clipPath>
</defs>
</svg>
