<svg width="52" height="46" viewBox="0 0 52 46" fill="none" xmlns="http://www.w3.org/2000/svg">
<rect x="0.501953" y="-9.99976" width="56" height="56" rx="28" fill="#0A2647"/>
<g clip-path="url(#clip0_278_3014)">
<path fill-rule="evenodd" clip-rule="evenodd" d="M32.4943 9.01374C33.8276 8.23597 35.502 9.19772 35.502 10.7413V14.0002C37.1589 14.0002 38.502 15.3434 38.502 17.0002C38.502 18.6571 37.1589 20.0002 35.502 20.0002V23.0002C35.502 24.6483 33.6205 25.5891 32.302 24.6002L30.2411 23.0545C29.1365 22.2261 27.8538 21.6768 26.5019 21.4463V24.2901C26.5019 25.7869 25.2886 27.0002 23.7918 27.0002C22.5819 27.0002 21.5185 26.1981 21.186 25.0346L19.6156 19.5379C18.9197 18.7169 18.502 17.6551 18.502 16.5002C18.502 14.0059 20.4506 11.946 22.9411 11.8077L25.9597 11.64C27.4362 11.5579 28.8721 11.1266 30.1495 10.3815L32.4943 9.01374ZM22.1357 21.0782L23.1091 24.4852C23.1962 24.79 23.4748 25.0002 23.7918 25.0002C24.184 25.0002 24.5019 24.6823 24.5019 24.2901V21.2795L22.9411 21.1928C22.6653 21.1775 22.3962 21.1386 22.1357 21.0782ZM36.502 17.0002C36.502 16.4479 36.0543 16.0002 35.502 16.0002V18.0002C36.0543 18.0002 36.502 17.5525 36.502 17.0002Z" fill="#F9FAFC"/>
</g>
<defs>
<clipPath id="clip0_278_3014">
<rect width="24" height="24" fill="white" transform="translate(16.502 6)"/>
</clipPath>
</defs>
</svg>
