<svg width="38" height="37" viewBox="0 0 38 37" fill="none" xmlns="http://www.w3.org/2000/svg">
<circle cx="19" cy="18.5002" r="18.5" fill="#F9FAFC"/>
<path d="M13.5846 10.9171V7.66707C13.5846 7.37976 13.6988 7.10421 13.9019 6.90104C14.1051 6.69788 14.3807 6.58374 14.668 6.58374H23.3346C23.622 6.58374 23.8975 6.69788 24.1007 6.90104C24.3038 7.10421 24.418 7.37976 24.418 7.66707V10.9171H28.7513C29.0386 10.9171 29.3142 11.0312 29.5173 11.2344C29.7205 11.4375 29.8346 11.7131 29.8346 12.0004V27.1671C29.8346 27.4544 29.7205 27.7299 29.5173 27.9331C29.3142 28.1363 29.0386 28.2504 28.7513 28.2504H9.2513C8.96398 28.2504 8.68843 28.1363 8.48527 27.9331C8.28211 27.7299 8.16797 27.4544 8.16797 27.1671V12.0004C8.16797 11.7131 8.28211 11.4375 8.48527 11.2344C8.68843 11.0312 8.96398 10.9171 9.2513 10.9171H13.5846ZM10.3346 21.7504V26.0837H27.668V21.7504H10.3346ZM17.918 17.4171V19.5837H20.0846V17.4171H17.918ZM15.7513 8.75041V10.9171H22.2513V8.75041H15.7513Z" fill="#0A2647"/>
</svg>
