<svg width="13" height="13" viewBox="0 0 13 13" fill="none" xmlns="http://www.w3.org/2000/svg">
<mask id="mask0_145_1346" style="mask-type:luminance" maskUnits="userSpaceOnUse" x="0" y="0" width="13" height="13">
<path d="M0.621094 0.473293H12.336V12.2832H0.621094V0.473293Z" fill="white"/>
</mask>
<g mask="url(#mask0_145_1346)">
<path fill-rule="evenodd" clip-rule="evenodd" d="M3.88537 12.2111C4.75092 12.2642 5.61551 12.2851 6.47833 12.2831C7.34113 12.2851 8.20571 12.2642 9.07129 12.2111C9.80023 12.1664 10.4918 11.9231 11.0684 11.449C11.6238 10.9925 11.9722 10.381 12.1455 9.6959C12.3057 9.06299 12.3144 8.42687 12.3222 7.85227L12.3223 7.84092C12.3289 7.35491 12.3344 6.8674 12.3356 6.37935L12.3356 6.37825L12.3356 6.37716C12.3344 5.8891 12.3289 5.4016 12.3223 4.91558L12.3222 4.90424C12.3144 4.32964 12.3057 3.6935 12.1455 3.06059L11.7021 3.17466L12.1455 3.06059C11.9722 2.37554 11.6238 1.76403 11.0684 1.30747C10.4918 0.833443 9.80023 0.590068 9.07129 0.545379C8.20571 0.492313 7.34113 0.471409 6.47833 0.473437C5.61551 0.471409 4.75092 0.492313 3.88537 0.545379C3.15642 0.590068 2.46487 0.833443 1.88826 1.30747C1.3329 1.76403 0.984498 2.37555 0.811096 3.06059L1.22353 3.16669L0.811096 3.06059C0.65087 3.6936 0.642252 4.32984 0.634467 4.90452L0.634318 4.91559C0.634318 4.91559 0.634317 4.91559 0.634317 4.91559C0.62772 5.40158 0.622223 5.88911 0.621096 6.37718L0.621094 6.37825L0.621096 6.37933C0.622223 6.8674 0.62772 7.35492 0.634317 7.84091C0.634317 7.84092 0.634318 7.84092 0.634318 7.84092L0.634468 7.85199C0.642252 8.42667 0.65087 9.0629 0.811096 9.69591L0.811096 9.69592C0.984498 10.381 1.3329 10.9925 1.88826 11.449L2.17746 11.0915L1.88826 11.449C2.46487 11.9231 3.15642 12.1664 3.88537 12.2111ZM6.47725 11.3604C5.63005 11.3624 4.78462 11.3419 3.94093 11.2902C3.38087 11.2558 2.87814 11.0723 2.46667 10.734L2.46667 10.734C2.08438 10.4197 1.8301 9.99003 1.69791 9.46779L1.2545 9.58185L1.69791 9.46779C1.56776 8.95359 1.55751 8.42207 1.54946 7.8283L1.54946 7.8283C1.54288 7.34379 1.53745 6.86072 1.53632 6.37825C1.53745 5.89578 1.54288 5.41272 1.54946 4.92821L1.54946 4.9282C1.55751 4.33443 1.56776 3.80292 1.69791 3.28872C1.8301 2.76648 2.08438 2.33678 2.46667 2.02251L2.17746 1.66499L2.46667 2.02251C2.87814 1.68424 3.38087 1.50066 3.94093 1.46633C4.78462 1.4146 5.63005 1.39407 6.47725 1.39609L6.47833 1.39609L6.47941 1.39609C7.32658 1.39407 8.17202 1.4146 9.01573 1.46633C9.57579 1.50066 10.0785 1.68424 10.49 2.02251L10.7549 1.69505L10.49 2.02251C10.8723 2.33678 11.1266 2.76647 11.2587 3.2887L11.2587 3.28872C11.3889 3.80292 11.3991 4.33443 11.4072 4.92821C11.4138 5.41269 11.4192 5.89577 11.4203 6.37825C11.4192 6.86074 11.4138 7.34382 11.4072 7.82829C11.3991 8.42207 11.3889 8.95358 11.2587 9.46779L11.2587 9.4678C11.1266 9.99003 10.8723 10.4197 10.49 10.734L10.7792 11.0915L10.49 10.734C10.0785 11.0723 9.57579 11.2558 9.01573 11.2902C8.17202 11.3419 7.32658 11.3624 6.47941 11.3604L6.47833 11.3604L6.47725 11.3604Z" fill="#212121"/>
<path fill-rule="evenodd" clip-rule="evenodd" d="M3.5957 6.38039C3.5957 7.97279 4.87621 9.26367 6.45579 9.26367C8.03538 9.26367 9.31588 7.97279 9.31588 6.38039C9.31588 4.788 8.03538 3.49711 6.45579 3.49711C4.87621 3.49711 3.5957 4.788 3.5957 6.38039ZM6.45579 8.34102C5.38167 8.34102 4.51093 7.46322 4.51093 6.38039C4.51093 5.29756 5.38167 4.41976 6.45579 4.41976C7.52991 4.41976 8.40065 5.29756 8.40065 6.38039C8.40065 7.46322 7.52991 8.34102 6.45579 8.34102Z" fill="#212121"/>
<path d="M10.3221 3.26309C10.3221 3.64525 10.0147 3.95508 9.63564 3.95508C9.25655 3.95508 8.94922 3.64525 8.94922 3.26309C8.94922 2.88093 9.25655 2.5711 9.63564 2.5711C10.0147 2.5711 10.3221 2.88093 10.3221 3.26309Z" fill="#212121"/>
</g>
</svg>
