<svg width="41" height="24" viewBox="0 0 41 24" fill="none" xmlns="http://www.w3.org/2000/svg">
<path d="M5.61124 0.984893V1.8282H6.68911V2.69802C6.82922 2.66272 6.97658 2.62684 7.12037 2.59272V0.984863L5.61124 0.984893ZM34.2824 0.984893V2.59275C34.4258 2.62687 34.5734 2.66276 34.7136 2.69805V1.82823H35.7915V0.984923L34.2824 0.984893ZM3.02437 1.8282V2.67151H4.10223V3.50157C4.24057 3.4498 4.38944 3.39362 4.53349 3.34332V1.82786L3.02437 1.8282ZM20.7013 1.8282C9.98583 1.8282 1.29979 4.09375 1.29979 6.88845C1.29979 7.71882 2.07 8.50331 3.42841 9.19457C5.17183 7.84439 8.15275 6.33158 10.8251 5.74182C13.801 5.08527 17.2532 4.75407 20.7007 4.72697C24.1481 4.69986 27.591 4.96905 30.5631 5.55704C33.4114 6.12061 36.6041 7.71814 38.2829 9.02265C39.4483 8.37259 40.1018 7.65282 40.1018 6.88769C40.1018 4.093 31.4158 1.82745 20.7003 1.82745L20.7013 1.8282ZM36.8692 1.8282V3.34366C37.0117 3.39337 37.1633 3.4375 37.3005 3.48868V2.6715H38.3783V1.82819L36.8692 1.8282ZM0.4375 3.51482V4.35814H1.51536V4.79289C1.65069 4.69611 1.79385 4.59639 1.94663 4.50315V3.5148L0.4375 3.51482ZM39.4561 3.51482V4.50317C39.6055 4.59465 39.7544 4.69819 39.8873 4.79291V4.35816H40.9652V3.51485L39.4561 3.51482ZM39.6982 9.11546C38.5731 9.86052 36.9123 10.4991 34.9422 11.013C31.2163 11.9849 26.2177 12.555 20.7006 12.555C15.1835 12.555 10.1853 11.9849 6.45897 11.013C4.60129 10.5285 3.02269 9.92495 1.90518 9.23399L4.31682 18.6957C7.65471 20.2629 11.0408 21.341 14.4487 21.9376L13.8289 19.302C13.7615 19.0237 13.8511 18.7137 14.0581 18.5113L16.2138 16.4028C16.3545 16.2684 16.5434 16.1831 16.7392 16.1658H24.5806C24.8083 16.1607 25.0368 16.2481 25.2004 16.4028L27.3562 18.5113C27.5628 18.7137 27.6527 19.0237 27.5853 19.302L26.9519 21.964C30.4647 21.3737 33.989 20.2877 37.515 18.6961L39.6982 9.11546ZM16.8205 17.0086L15.527 18.2738H25.8745L24.581 17.0086H16.8205ZM16.6185 19.9604L17.5213 23.7555H23.894L24.7969 19.9604H16.6185Z" fill="#212121"/>
<path d="M5.30078 9.59945C6.82103 8.61466 9.09942 7.49363 11.202 7.02978C11.202 7.02978 12.874 6.70741 15.8105 6.36952C18.747 6.03158 20.715 6.0544 20.715 6.0544C24.0577 6.02876 27.4058 6.30002 30.2271 6.85833C32.4962 7.30771 34.959 8.50405 36.4651 9.46767C35.9983 9.6374 35.4976 9.80215 34.9559 9.95539C31.7192 8.26787 25.8833 6.95097 20.7012 6.95097C15.5183 6.95097 9.69408 8.26758 6.45957 9.95539C6.05327 9.84035 5.6653 9.72359 5.30078 9.59945Z" fill="#212121"/>
<path d="M9.30273 10.7326C9.30273 10.7326 14.3635 8.75455 20.7011 8.75586C27.0388 8.75717 32.1134 10.7326 32.1134 10.7326C32.1134 10.7326 26.0024 11.7077 20.7011 11.7077C15.3999 11.7077 9.30273 10.7326 9.30273 10.7326Z" fill="#212121"/>
</svg>
