<svg width="10" height="13" viewBox="0 0 10 13" fill="none" xmlns="http://www.w3.org/2000/svg">
<path d="M0.815965 0.376896C0.542594 0.198817 0.214238 0.144994 -0.09375 0.218286L5.31865 5.67459L7.07283 3.90619L0.815965 0.376896Z" fill="#212121"/>
<path d="M-0.762159 0.661133C-0.913118 0.863453 -1 1.11187 -1 1.37465V11.0939C-1 11.3567 -0.913095 11.6051 -0.762159 11.8074L4.76614 6.2343L-0.762159 0.661133Z" fill="#212121"/>
<path d="M9.36269 5.19688L7.78616 4.30762L5.875 6.23428L7.78626 8.16103L9.36295 7.2717C9.74069 7.05835 9.96618 6.67058 9.96618 6.23428C9.96618 5.79798 9.74069 5.41023 9.36269 5.19688Z" fill="#212121"/>
<path d="M5.32223 6.79492L-0.0898438 12.2509C-0.00111049 12.2719 0.0891931 12.2833 0.179497 12.2833C0.402666 12.2833 0.625061 12.2193 0.819567 12.0926L7.07648 8.56335L5.32223 6.79492Z" fill="#212121"/>
</svg>
