<svg width="158" height="47" viewBox="0 0 158 47" fill="none" xmlns="http://www.w3.org/2000/svg">
<path d="M152.424 0H6.48069C3.43018 0 0.861328 2.56885 0.861328 5.61936V41.1551C0.861328 44.2056 3.43018 46.6674 6.48069 46.6674H152.37C155.421 46.6674 157.722 44.1521 157.722 41.1551V5.61936C157.722 2.56885 155.474 0 152.424 0Z" fill="black"/>
<path d="M36.0204 23.1204C35.9668 19.3741 39.0709 17.5545 39.2314 17.4475C37.4653 14.8786 34.7359 14.5575 33.7726 14.504C31.4714 14.29 29.2771 15.8955 28.0997 15.8955C26.9223 15.8955 25.1027 14.5575 23.1761 14.6111C20.6608 14.6646 18.3595 16.1096 17.0751 18.3038C14.4527 22.8528 16.3793 29.596 18.9482 33.2887C20.2326 35.1083 21.6776 37.0885 23.6042 37.035C25.4774 36.9815 26.2266 35.8041 28.4744 35.8041C30.7221 35.8041 31.4178 37.035 33.3445 36.9815C35.3782 36.9279 36.6626 35.1619 37.8935 33.3423C39.3385 31.2551 39.9272 29.2214 39.9807 29.1144C39.9272 29.1144 36.0739 27.6159 36.0204 23.1204Z" fill="white"/>
<path d="M32.2776 12.0941C33.2945 10.8097 33.9902 9.09714 33.7761 7.33105C32.3311 7.38457 30.458 8.34789 29.3877 9.5788C28.4243 10.6492 27.6216 12.4688 27.8357 14.1813C29.5482 14.2884 31.2608 13.325 32.2776 12.0941Z" fill="white"/>
<path d="M63.3689 36.7669H60.7465L59.3015 32.2179H54.2709L52.8794 36.7669H50.3105L55.2877 21.3003H58.3917L63.3689 36.7669ZM58.8734 30.2913L57.589 26.2239C57.4284 25.7958 57.2143 24.8325 56.7862 23.2804H56.7327C56.5721 23.9227 56.3581 24.886 55.9834 26.2239L54.699 30.2913H58.8734Z" fill="white"/>
<path d="M76.216 31.0401C76.216 32.9132 75.6809 34.4652 74.664 35.5356C73.7542 36.4989 72.6304 36.9805 71.2389 36.9805C69.7939 36.9805 68.7236 36.4454 68.0813 35.375H68.0278V41.2619H65.566V29.274C65.566 28.0966 65.5125 26.8657 65.459 25.5813H67.6532L67.8138 27.3473H67.8673C68.67 26.0094 69.9545 25.3672 71.6135 25.3672C72.9515 25.3672 74.0218 25.9024 74.9316 26.9192C75.7344 27.9896 76.216 29.3275 76.216 31.0401ZM73.6472 31.1471C73.6472 30.0767 73.3796 29.1669 72.8979 28.4712C72.3628 27.722 71.667 27.3473 70.7572 27.3473C70.1685 27.3473 69.5798 27.5614 69.0982 27.936C68.6165 28.3642 68.2954 28.8994 68.1349 29.5416C68.0814 29.8627 68.0278 30.0767 68.0278 30.2908V32.1639C68.0278 32.9667 68.2954 33.6624 68.7771 34.1976C69.2587 34.7328 69.9009 35.0539 70.7037 35.0539C71.6135 35.0539 72.3628 34.6793 72.8979 33.9835C73.4331 33.2343 73.6472 32.3245 73.6472 31.1471Z" fill="white"/>
<path d="M89.0598 31.0401C89.0598 32.9132 88.5246 34.4652 87.5078 35.5356C86.598 36.4989 85.4741 36.9805 84.0826 36.9805C82.6377 36.9805 81.5673 36.4454 80.9251 35.375H80.8716V41.2619H78.4098V29.274C78.4098 28.0966 78.3563 26.8657 78.3027 25.5813H80.4969L80.6575 27.3473H80.711C81.5138 26.0094 82.7982 25.3672 84.4573 25.3672C85.7952 25.3672 86.8656 25.9024 87.7754 26.9192C88.5781 27.9896 89.0598 29.3275 89.0598 31.0401ZM86.4909 31.1471C86.4909 30.0767 86.2234 29.1669 85.7417 28.4712C85.2065 27.722 84.5108 27.3473 83.601 27.3473C83.0123 27.3473 82.4236 27.5614 81.9419 27.936C81.4603 28.3642 81.1392 28.8994 80.9786 29.5416C80.9251 29.8627 80.8716 30.0767 80.8716 30.2908V32.1639C80.8716 32.9667 81.1392 33.6624 81.6208 34.1976C82.1025 34.7328 82.7447 35.0539 83.5475 35.0539C84.4573 35.0539 85.2065 34.6793 85.7417 33.9835C86.2234 33.2343 86.4909 32.3245 86.4909 31.1471Z" fill="white"/>
<path d="M103.401 32.4318C103.401 33.7697 102.919 34.8401 102.009 35.6429C100.992 36.5527 99.601 36.9808 97.7814 36.9808C96.1224 36.9808 94.7844 36.6597 93.7676 36.0175L94.3563 33.9303C95.4266 34.5725 96.6575 34.8936 97.942 34.8936C98.8518 34.8936 99.601 34.6795 100.136 34.2514C100.671 33.8233 100.939 33.2881 100.939 32.5388C100.939 31.8966 100.725 31.3614 100.297 30.9333C99.8686 30.5052 99.1729 30.1305 98.156 29.7559C95.4266 28.7391 94.0887 27.2406 94.0887 25.3139C94.0887 24.0295 94.5703 23.0127 95.5337 22.2099C96.497 21.4071 97.7279 20.979 99.3334 20.979C100.725 20.979 101.902 21.2466 102.866 21.7283L102.223 23.7619C101.367 23.2803 100.35 23.0662 99.2799 23.0662C98.4236 23.0662 97.7279 23.2803 97.2462 23.7084C96.8181 24.083 96.604 24.5647 96.604 25.0999C96.604 25.6886 96.8181 26.2237 97.2998 26.5984C97.7279 26.973 98.4771 27.3476 99.5475 27.7758C100.885 28.3109 101.849 28.9531 102.491 29.6489C103.08 30.4516 103.401 31.3614 103.401 32.4318Z" fill="white"/>
<path d="M111.587 27.4549H108.858V32.8602C108.858 34.2516 109.339 34.9474 110.303 34.9474C110.731 34.9474 111.105 34.8938 111.426 34.8403L111.48 36.7134C110.998 36.874 110.356 36.981 109.553 36.981C108.59 36.981 107.787 36.6599 107.252 36.0712C106.717 35.4825 106.449 34.4657 106.449 33.0742V27.4549H104.844V25.5818H106.449V23.5481L108.911 22.7988V25.5818H111.641V27.4549H111.587Z" fill="white"/>
<path d="M123.899 31.0943C123.899 32.8068 123.418 34.1983 122.454 35.3222C121.437 36.446 120.046 37.0347 118.387 37.0347C116.728 37.0347 115.443 36.4996 114.48 35.4292C113.517 34.3588 113.035 32.9674 113.035 31.3083C113.035 29.5958 113.517 28.1508 114.534 27.0804C115.551 25.9566 116.888 25.4214 118.601 25.4214C120.26 25.4214 121.545 25.9566 122.561 27.0269C123.471 28.0438 123.899 29.4352 123.899 31.0943ZM121.33 31.1478C121.33 30.1309 121.116 29.2211 120.688 28.4719C120.153 27.5621 119.404 27.134 118.44 27.134C117.424 27.134 116.674 27.5621 116.193 28.4719C115.765 29.2211 115.55 30.1309 115.55 31.1478C115.55 32.1646 115.765 33.0744 116.193 33.7702C116.728 34.68 117.477 35.1081 118.44 35.1081C119.404 35.1081 120.153 34.68 120.688 33.7702C121.116 33.0744 121.33 32.2181 121.33 31.1478Z" fill="white"/>
<path d="M131.978 27.7753C131.711 27.7218 131.497 27.7218 131.176 27.7218C130.319 27.7218 129.624 28.0429 129.142 28.6851C128.714 29.2738 128.5 30.023 128.5 30.8793V36.7128H126.091V29.0597C126.091 27.7753 126.038 26.5979 125.984 25.5275H128.125L128.232 27.6683H128.286C128.553 26.919 128.981 26.3303 129.517 25.9022C130.052 25.5275 130.64 25.3135 131.283 25.3135C131.497 25.3135 131.711 25.3135 131.925 25.367V27.7753H131.978Z" fill="white"/>
<path d="M143.059 30.6652C143.059 31.0934 143.005 31.468 142.952 31.7891H135.513C135.566 32.913 135.887 33.7158 136.583 34.3045C137.225 34.8396 138.028 35.1072 138.991 35.1072C140.115 35.1072 141.078 34.9467 141.988 34.572L142.363 36.2846C141.293 36.7663 140.062 36.9803 138.617 36.9803C136.904 36.9803 135.513 36.4452 134.549 35.4283C133.586 34.4115 133.051 33.02 133.051 31.3075C133.051 29.6484 133.532 28.2034 134.442 27.0796C135.406 25.9022 136.69 25.3135 138.349 25.3135C139.955 25.3135 141.185 25.9022 141.988 27.0796C142.737 28.0964 143.059 29.2738 143.059 30.6652ZM140.704 30.023C140.704 29.2738 140.543 28.6316 140.222 28.0964C139.794 27.4007 139.152 27.0796 138.242 27.0796C137.439 27.0796 136.797 27.4007 136.262 28.0964C135.834 28.6316 135.62 29.2738 135.513 30.023H140.704Z" fill="white"/>
<path d="M58.0186 11.7738C58.0186 13.1652 57.5905 14.1821 56.7877 14.8778C56.0384 15.52 54.9681 15.8411 53.5766 15.8411C52.8809 15.8411 52.2922 15.7876 51.8105 15.7341V8.24161C52.4528 8.13457 53.1485 8.08105 53.8977 8.08105C55.2357 8.08105 56.2525 8.34864 56.8947 8.93734C57.644 9.57955 58.0186 10.5429 58.0186 11.7738ZM56.7342 11.7738C56.7342 10.864 56.5201 10.2218 56.0384 9.7401C55.5568 9.25844 54.861 9.04437 54.0048 9.04437C53.6301 9.04437 53.309 9.04437 53.0414 9.09789V14.7708C53.202 14.7708 53.4696 14.8243 53.8442 14.8243C54.754 14.8243 55.5033 14.5567 55.9849 14.0215C56.5201 13.5399 56.7342 12.7906 56.7342 11.7738Z" fill="white"/>
<path d="M64.8701 12.9514C64.8701 13.8077 64.6561 14.5034 64.1209 15.0386C63.6392 15.5737 62.9435 15.8949 62.0872 15.8949C61.2844 15.8949 60.6422 15.6273 60.1606 15.0921C59.6789 14.5569 59.4648 13.8612 59.4648 13.0584C59.4648 12.2021 59.7324 11.5064 60.2141 10.9712C60.6957 10.436 61.3915 10.1685 62.1943 10.1685C62.997 10.1685 63.6392 10.436 64.1209 10.9712C64.6026 11.4529 64.8701 12.1486 64.8701 12.9514ZM63.5857 13.0049C63.5857 12.5232 63.4787 12.0416 63.2646 11.7205C62.997 11.2923 62.6224 11.0783 62.1943 11.0783C61.7126 11.0783 61.338 11.2923 61.0704 11.7205C60.8563 12.0951 60.7493 12.5232 60.7493 13.0584C60.7493 13.5401 60.8563 14.0217 61.0704 14.3428C61.338 14.771 61.7126 14.9851 62.1943 14.9851C62.6759 14.9851 63.0505 14.771 63.2646 14.3428C63.4787 13.9147 63.5857 13.4866 63.5857 13.0049Z" fill="white"/>
<path d="M73.9628 10.2754L72.2502 15.7342H71.1264L70.4306 13.3794C70.2701 12.7907 70.1095 12.202 70.0025 11.6133C69.8955 12.202 69.7349 12.7907 69.5744 13.3794L68.8251 15.7342H67.7012L66.0957 10.2754H67.3266L67.9688 12.8978C68.1294 13.54 68.2364 14.0751 68.3435 14.6638C68.4505 14.1822 68.5575 13.647 68.7716 12.8978L69.5744 10.2754H70.5912L71.3405 12.8442C71.501 13.4865 71.6616 14.0751 71.7686 14.6638H71.8221C71.9291 14.0751 72.0362 13.4865 72.1967 12.8442L72.8389 10.2754H73.9628Z" fill="white"/>
<path d="M80.3361 15.7343H79.1052V12.5768C79.1052 11.6134 78.7306 11.1318 77.9813 11.1318C77.6067 11.1318 77.3391 11.2388 77.1251 11.5064C76.911 11.774 76.804 12.0951 76.804 12.4697V15.7343H75.5731V11.8275C75.5731 11.3458 75.573 10.8107 75.5195 10.2755H76.5899L76.6434 11.1318H76.6969C76.8575 10.8642 77.0715 10.6501 77.3391 10.4896C77.6602 10.2755 78.0349 10.1685 78.463 10.1685C78.9982 10.1685 79.4263 10.329 79.7474 10.6501C80.1756 11.0783 80.3896 11.667 80.3896 12.4697V15.7343H80.3361Z" fill="white"/>
<path d="M83.6528 15.7344H82.4219V7.76025H83.6528V15.7344Z" fill="white"/>
<path d="M90.8252 12.9514C90.8252 13.8077 90.6111 14.5034 90.076 15.0386C89.5943 15.5737 88.8986 15.8949 88.0423 15.8949C87.2395 15.8949 86.5973 15.6273 86.1156 15.0921C85.634 14.5569 85.4199 13.8612 85.4199 13.0584C85.4199 12.2021 85.6875 11.5064 86.1692 10.9712C86.6508 10.436 87.3466 10.1685 88.1493 10.1685C88.9521 10.1685 89.5943 10.436 90.076 10.9712C90.6111 11.4529 90.8252 12.1486 90.8252 12.9514ZM89.5943 13.0049C89.5943 12.5232 89.4873 12.0416 89.2732 11.7205C89.0056 11.2923 88.631 11.0783 88.2029 11.0783C87.7212 11.0783 87.3466 11.2923 87.079 11.7205C86.8649 12.0951 86.7579 12.5232 86.7579 13.0584C86.7579 13.5401 86.8649 14.0217 87.079 14.3428C87.3466 14.771 87.7212 14.9851 88.2029 14.9851C88.6845 14.9851 89.0056 14.771 89.2732 14.3428C89.4873 13.9147 89.5943 13.4866 89.5943 13.0049Z" fill="white"/>
<path d="M96.765 15.7341H95.6947L95.5876 15.0919H95.5341C95.1595 15.5736 94.6243 15.8411 93.9286 15.8411C93.3934 15.8411 93.0188 15.6806 92.6977 15.3595C92.4301 15.0384 92.2695 14.6638 92.2695 14.2356C92.2695 13.5399 92.5371 13.0582 93.1258 12.6836C93.661 12.309 94.4638 12.1484 95.4806 12.1484V12.0414C95.4806 11.3457 95.106 10.971 94.3567 10.971C93.8216 10.971 93.3399 11.1316 92.9118 11.3992L92.6442 10.5964C93.1793 10.2753 93.768 10.1147 94.5173 10.1147C95.9623 10.1147 96.658 10.864 96.658 12.3625V14.4497C96.658 14.9849 96.7115 15.413 96.765 15.7341ZM95.4806 13.861V13.0047C94.1427 13.0047 93.4469 13.3258 93.4469 14.1286C93.4469 14.3962 93.5004 14.6102 93.661 14.7708C93.8215 14.9313 94.0356 14.9849 94.2497 14.9849C94.5173 14.9849 94.7849 14.8778 94.9989 14.7173C95.213 14.5567 95.3736 14.3426 95.4271 14.0751C95.4806 14.0215 95.4806 13.9145 95.4806 13.861Z" fill="white"/>
<path d="M103.669 15.7344H102.598L102.545 14.8781H102.491C102.17 15.5738 101.581 15.8949 100.725 15.8949C100.083 15.8949 99.4942 15.6274 99.066 15.0922C98.6379 14.557 98.4238 13.9148 98.4238 13.0585C98.4238 12.1487 98.6379 11.453 99.1196 10.9178C99.6012 10.3826 100.136 10.1686 100.832 10.1686C101.581 10.1686 102.063 10.4361 102.384 10.9178V7.76025H103.615V14.2894C103.615 14.7711 103.669 15.3063 103.669 15.7344ZM102.438 13.4331V12.5233C102.438 12.3628 102.438 12.2557 102.384 12.1487C102.331 11.8811 102.17 11.6135 101.956 11.3995C101.742 11.1854 101.474 11.0784 101.153 11.0784C100.725 11.0784 100.35 11.2389 100.083 11.6135C99.8153 11.9882 99.7083 12.4163 99.7083 13.005C99.7083 13.5402 99.8153 13.9683 100.083 14.3429C100.35 14.7176 100.725 14.8781 101.153 14.8781C101.528 14.8781 101.849 14.7176 102.117 14.45C102.277 14.1289 102.438 13.8078 102.438 13.4331Z" fill="white"/>
<path d="M114.106 12.9514C114.106 13.8077 113.892 14.5034 113.41 15.0386C112.928 15.5737 112.233 15.8949 111.376 15.8949C110.574 15.8949 109.931 15.6273 109.45 15.0921C108.968 14.5569 108.754 13.8612 108.754 13.0584C108.754 12.2021 109.022 11.5064 109.503 10.9712C109.985 10.436 110.681 10.1685 111.483 10.1685C112.286 10.1685 112.928 10.436 113.41 10.9712C113.892 11.4529 114.106 12.1486 114.106 12.9514ZM112.821 13.0049C112.821 12.5232 112.714 12.0416 112.5 11.7205C112.233 11.2923 111.858 11.0783 111.43 11.0783C110.948 11.0783 110.574 11.2923 110.306 11.7205C110.092 12.0951 109.985 12.5232 109.985 13.0584C109.985 13.5401 110.092 14.0217 110.306 14.3428C110.574 14.771 110.948 14.9851 111.43 14.9851C111.911 14.9851 112.286 14.771 112.5 14.3428C112.714 13.9147 112.821 13.4866 112.821 13.0049Z" fill="white"/>
<path d="M120.635 15.7343H119.404V12.5768C119.404 11.6134 119.029 11.1318 118.28 11.1318C117.906 11.1318 117.638 11.2388 117.424 11.5064C117.21 11.774 117.103 12.0951 117.103 12.4697V15.7343H115.872V11.8275C115.872 11.3458 115.872 10.8107 115.818 10.2755H116.889L116.942 11.1318H116.996C117.156 10.8642 117.37 10.6501 117.638 10.4896C117.959 10.2755 118.334 10.1685 118.762 10.1685C119.297 10.1685 119.672 10.329 120.046 10.6501C120.474 11.0783 120.688 11.667 120.688 12.4697V15.7343H120.635Z" fill="white"/>
<path d="M128.874 11.186H127.536V13.8619C127.536 14.5576 127.75 14.8787 128.231 14.8787C128.445 14.8787 128.606 14.8788 128.767 14.8252L128.82 15.735C128.606 15.8421 128.285 15.8956 127.857 15.8956C127.375 15.8956 127 15.735 126.733 15.4674C126.465 15.1999 126.305 14.6647 126.305 13.9689V11.186H125.502V10.2762H126.305V9.25939L127.482 8.88477V10.2762H128.82V11.186H128.874Z" fill="white"/>
<path d="M135.296 15.7344H134.119V12.6304C134.119 11.667 133.744 11.1319 132.995 11.1319C132.406 11.1319 132.032 11.3995 131.818 11.9882C131.764 12.0952 131.764 12.2557 131.764 12.4163V15.7344H130.533V7.76025H131.764V11.0784C132.139 10.4897 132.674 10.1686 133.423 10.1686C133.905 10.1686 134.333 10.3291 134.654 10.6502C135.082 11.0784 135.296 11.667 135.296 12.4698V15.7344Z" fill="white"/>
<path d="M141.988 12.7374C141.988 12.9515 141.988 13.1656 141.935 13.2726H138.296C138.296 13.8078 138.51 14.2359 138.831 14.5035C139.152 14.7711 139.527 14.8781 140.008 14.8781C140.543 14.8781 141.025 14.7711 141.507 14.6105L141.721 15.4668C141.186 15.6809 140.597 15.7879 139.901 15.7879C139.045 15.7879 138.403 15.5203 137.921 15.0387C137.439 14.557 137.172 13.8613 137.172 13.005C137.172 12.2022 137.386 11.5065 137.868 10.9178C138.349 10.3291 138.991 10.0615 139.794 10.0615C140.597 10.0615 141.186 10.3291 141.56 10.9178C141.828 11.453 141.988 12.0417 141.988 12.7374ZM140.811 12.4163C140.811 12.0417 140.758 11.7206 140.597 11.5065C140.383 11.1854 140.062 11.0248 139.634 11.0248C139.259 11.0248 138.938 11.1854 138.67 11.5065C138.456 11.7741 138.349 12.0952 138.296 12.4698H140.811V12.4163Z" fill="white"/>
</svg>
