<svg width="29" height="30" viewBox="0 0 29 30" fill="none" xmlns="http://www.w3.org/2000/svg">
<path d="M4.64737 25.473C6.63723 26.9954 8.01908 27.2673 8.01908 27.2673C8.01908 27.2673 5.47648 31.5083 1.99422 28.8984C-1.43276 26.3429 1.8284 22.9175 1.99422 22.7544C1.99422 22.7544 2.65751 23.9506 4.64737 25.473Z" fill="#212121"/>
<path d="M1.99414 22.7544C2.32578 23.2981 2.76798 23.7875 3.21017 24.2224C3.65236 24.6574 4.14982 25.0924 4.64729 25.473C5.14476 25.8536 5.6975 26.2342 6.25023 26.5061C6.80297 26.8323 7.41099 27.1041 8.019 27.2673V27.3216C7.68736 27.3216 7.35571 27.2129 7.02407 27.1585C6.69243 27.0498 6.41606 26.941 6.08441 26.8323C5.4764 26.5604 4.92366 26.2342 4.37092 25.7992C3.87346 25.4186 3.37599 24.9836 2.9338 24.4399C2.54688 23.9506 2.15996 23.4069 1.99414 22.7544Z" fill="#212121"/>
<path d="M12.1078 23.8958C12.7158 23.5152 13.3238 23.189 13.9319 22.8084C13.7108 22.6997 13.5449 22.5909 13.3238 22.4822C12.6606 22.8628 11.9973 23.189 11.334 23.5696C11.5551 23.7327 11.8314 23.8415 12.1078 23.8958Z" fill="#212121"/>
<path d="M28.6921 13.5108C27.863 13.3477 27.0339 13.4021 26.2048 13.5652C25.7073 13.674 25.2651 13.8371 24.8229 14.0546C24.1597 14.9789 23.3305 15.8488 22.4462 16.61C21.3407 17.48 20.1799 18.2412 18.8534 18.8393C18.1901 19.1111 17.5268 19.383 16.8635 19.6005C16.8082 19.6549 16.753 19.7092 16.6977 19.7636C16.4213 20.0898 16.2002 20.4704 16.0897 20.9598C15.4817 21.286 14.8736 21.6123 14.2656 21.9929C14.4867 22.1016 14.6525 22.2103 14.8736 22.2647C15.3158 21.9929 15.8133 21.721 16.2555 21.4491C16.9188 21.4491 17.5268 21.3948 18.1901 21.3404C18.8534 21.2317 19.4614 21.0685 20.0694 20.9054C21.3407 20.5248 22.5014 19.9267 23.6069 19.2199C24.6571 18.5131 25.6521 17.6431 26.5364 16.7188C26.9786 16.2294 27.3655 15.7401 27.7525 15.1964C28.0841 14.6527 28.471 14.1089 28.6921 13.5108ZM16.1449 20.9598C16.8635 20.5792 16.8635 20.5792 16.1449 20.9598V20.9598Z" fill="#212121"/>
<path d="M11.1158 24.4941C10.8395 24.3854 10.5631 24.2766 10.342 24.1135C9.89981 24.331 9.45762 24.6029 9.01543 24.8204C8.96016 24.8747 8.90488 24.9291 8.84961 24.9835C9.2918 25.201 9.56817 25.3641 9.56817 25.3641L9.45762 25.4728C10.0104 25.1466 10.5631 24.8204 11.1158 24.4941Z" fill="#212121"/>
<path d="M12.2776 21.9386C12.0565 21.7755 11.7801 21.6668 11.559 21.5037C10.951 21.8843 10.2877 22.3192 9.67969 22.6998C9.95606 22.863 10.2324 23.0261 10.4535 23.1892C11.0615 22.7542 11.6695 22.3736 12.2776 21.9386Z" fill="#212121"/>
<path d="M26.8685 9.65089C26.4263 9.59651 25.9288 9.59651 25.4866 9.65089C25.0444 9.70526 24.6023 9.814 24.1601 9.97712C23.7179 10.1402 23.331 10.3033 22.944 10.5208C22.8888 10.5752 22.8335 10.6296 22.7782 10.6296C22.2255 11.6626 21.5069 12.587 20.6778 13.4569C19.6276 14.5444 18.4669 15.4687 17.1956 16.2299C16.5323 16.6105 15.869 16.9367 15.2057 17.2086C15.1504 17.2086 15.0951 17.263 15.0951 17.263C14.9293 17.4804 14.7635 17.6979 14.5977 17.9698C14.4871 18.2416 14.3213 18.5135 14.266 18.7854C14.2108 19.0572 14.1555 19.3835 14.2108 19.7097C13.6027 20.1447 12.9947 20.5253 12.3867 20.9059C12.6078 21.0146 12.8289 21.1777 13.05 21.2865C13.658 20.8515 14.266 20.4165 14.874 19.9816V19.9272C17.5272 19.2203 20.0698 17.9698 22.1702 16.1755C23.2204 15.3056 24.1601 14.2725 24.9892 13.1851C25.8183 12.152 26.4816 10.9558 26.8685 9.65089Z" fill="#212121"/>
<path d="M8.79532 23.2437C8.35313 23.5155 7.96622 23.733 7.5793 24.0049C7.52402 24.0592 7.46875 24.0592 7.46875 24.1136C7.74512 24.3311 8.07676 24.4942 8.29786 24.6573C8.74005 24.3311 9.23752 24.0592 9.67971 23.733C9.34806 23.5699 9.07169 23.4068 8.79532 23.2437Z" fill="#212121"/>
<path d="M7.79591 22.5368C7.68536 22.4825 7.63009 22.3737 7.51954 22.3193C7.1879 22.6456 6.80098 22.9718 6.46934 23.298C6.41406 23.3524 6.41406 23.3524 6.41406 23.4068C6.74571 23.6243 7.02208 23.8417 7.29845 24.0049C7.63009 23.6243 8.01701 23.2437 8.34865 22.8631C8.18283 22.8087 8.01701 22.6999 7.79591 22.5368Z" fill="#212121"/>
<path d="M9.01661 22.2647C9.4588 21.7753 9.95627 21.286 10.3985 20.7966C10.1221 20.6335 9.90099 20.4704 9.6799 20.2529C9.18243 20.7423 8.68497 21.1773 8.1875 21.6666C8.46387 21.8841 8.74024 22.0472 9.01661 22.2647Z" fill="#212121"/>
<path d="M24.38 5.57275C24.0484 5.57275 23.7167 5.57275 23.3851 5.57275C23.0534 5.62713 22.7218 5.6815 22.3901 5.73587C21.7269 5.84461 21.0636 6.11647 20.4556 6.38833C19.8475 6.66019 19.2395 6.98642 18.6868 7.4214C18.4657 7.58451 18.2999 7.74763 18.1341 7.91075C17.8577 8.83507 17.526 9.70502 17.0286 10.5206C16.2547 11.8799 15.2598 13.0761 14.0438 14.0004C13.6569 14.3266 13.2147 14.5985 12.7725 14.8703C12.6067 15.1422 12.4961 15.3597 12.4408 15.6316C12.3856 15.7947 12.3303 15.9578 12.275 16.1209C12.2197 16.284 12.2197 16.4471 12.1645 16.6103C12.1092 16.9365 12.1092 17.3171 12.1645 17.6433C11.5565 18.2414 10.8932 18.8395 10.2852 19.492C10.5063 19.6551 10.7273 19.8182 11.0037 19.9813C11.667 19.2745 12.3856 18.5133 13.0489 17.8064C15.8125 16.7734 18.3552 15.1966 20.345 13.0761C21.3399 12.043 22.2243 10.8468 22.8876 9.5419C23.6062 8.34572 24.1589 6.98642 24.38 5.57275Z" fill="#212121"/>
<path d="M6.69141 20.3621C6.9125 20.5796 7.18887 20.7971 7.40997 21.0146C7.74161 20.4165 8.07325 19.8184 8.4049 19.2747C8.1838 19.0572 7.96271 18.8941 7.68634 18.731C7.35469 19.2747 7.02305 19.8184 6.69141 20.3621Z" fill="#212121"/>
<path d="M6.13966 21.1775C5.86329 21.6125 5.58692 22.1018 5.31055 22.5368C5.58692 22.7543 5.86329 22.9718 6.13966 23.2436C6.19493 23.1893 6.19493 23.1893 6.2502 23.1349C6.4713 22.6999 6.6924 22.2649 6.96877 21.8843C6.6924 21.6125 6.41603 21.395 6.13966 21.1775Z" fill="#212121"/>
<path d="M18.2474 1.7124C16.5339 2.79984 15.152 3.99602 13.9913 5.24658C13.7702 6.33401 13.3833 7.36708 12.9411 8.40015C12.2778 9.70507 11.5592 10.9556 10.6196 12.0974C10.3432 12.4237 10.0668 12.7499 9.84572 13.0218C9.56935 14.2179 9.51407 15.1966 9.4588 15.7947C9.01661 16.5016 8.57442 17.2084 8.1875 17.8609C8.4086 18.024 8.62969 18.2415 8.85079 18.4046C9.2377 17.6434 9.6799 16.9365 10.0668 16.1753V16.121C11.3934 15.4685 12.6647 14.6529 13.8254 13.6742C14.9309 12.6955 15.8706 11.4993 16.5891 10.1944C17.3077 8.88949 17.8052 7.47582 18.0815 6.06215C18.3579 4.70286 18.4685 3.18044 18.2474 1.7124Z" fill="#212121"/>
<path d="M7.02344 14.9248C6.85762 15.4141 6.63652 15.8491 6.4707 16.3384C6.63652 16.5015 6.80235 16.6647 7.02344 16.8821C7.24454 16.3384 7.41036 15.7403 7.63146 15.1966C9.62132 13.1849 11.3901 10.8469 12.6061 8.29138C13.2141 6.98646 13.6563 5.62716 13.9327 4.26786C14.2091 2.85419 14.2643 1.44052 13.988 0.0268555C13.1589 0.679318 12.4403 1.38615 11.7217 2.20173C11.2243 2.79982 10.7268 3.45228 10.2846 4.10475C10.2293 5.24656 10.0082 6.334 9.67659 7.42143C9.28967 8.61761 8.84748 9.75942 8.1842 10.8469C7.85255 11.3906 7.52091 11.8799 7.18926 12.4236C7.13399 12.3149 7.07872 12.3693 7.07872 12.4236C7.02344 12.7499 7.02344 13.0761 6.96817 13.4023C6.96817 13.9461 6.96817 14.4354 7.02344 14.9248Z" fill="#212121"/>
<path d="M6.08712 17.2627C5.86602 17.8608 5.64492 18.5132 5.42383 19.1113C5.64492 19.3288 5.81075 19.5463 6.08712 19.7638C6.30821 19.1113 6.52931 18.4589 6.7504 17.8064C6.47403 17.6433 6.30821 17.4258 6.08712 17.2627Z" fill="#212121"/>
<path d="M5.03379 20.0901C4.8127 20.6338 4.64688 21.2319 4.42578 21.7756C4.64688 21.9931 4.86797 22.2106 5.14434 22.4281C5.19962 22.3737 5.19962 22.3193 5.25489 22.265C5.42071 21.7756 5.53126 21.2863 5.69708 20.7426C5.47599 20.5251 5.25489 20.3076 5.03379 20.0901Z" fill="#212121"/>
<path d="M4.25977 17.8608C4.37031 17.9695 4.53614 18.187 4.81251 18.4589C4.97833 17.8064 5.14415 17.0996 5.30997 16.4471C5.14415 16.284 4.97833 16.0665 4.81251 15.9578C4.59141 16.6102 4.42559 17.2083 4.25977 17.8608Z" fill="#212121"/>
<path d="M5.53204 13.4567C5.36621 13.9461 5.25567 14.4354 5.08984 14.9248C5.20039 15.0335 5.31094 15.1966 5.53204 15.4141C5.69786 14.8704 5.80841 14.2723 5.97423 13.7286C7.41135 11.7712 8.5721 9.59631 9.29066 7.25832C9.62231 6.11651 9.89868 4.92033 9.95395 3.66977C10.0645 2.47359 10.0092 1.22304 9.78813 0.0268555C8.95902 0.951178 8.24046 1.92987 7.57717 2.96294C6.91388 3.996 6.47169 5.13781 6.14005 6.33399C5.42149 8.56324 5.36621 11.0643 5.53204 13.4567Z" fill="#212121"/>
<path d="M3.92969 18.9482C3.76387 19.6007 3.54277 20.3075 3.37695 20.96L3.4875 20.7969C3.4875 20.7969 3.65332 21.0144 4.04024 21.3406C4.09551 21.2862 4.15079 21.2319 4.15079 21.1775C4.26134 20.6338 4.42716 20.0901 4.53771 19.5463C4.31661 19.3288 4.09551 19.1114 3.92969 18.9482Z" fill="#212121"/>
<path d="M8.84811 24.9835C8.68229 24.8748 8.46119 24.766 8.29537 24.6573C8.019 24.4942 7.74263 24.331 7.46626 24.1136C7.41099 24.1136 7.35571 24.0592 7.35571 24.0048C7.07934 23.8417 6.7477 23.6242 6.47133 23.4067C6.41606 23.4067 6.41606 23.3524 6.36078 23.3524C6.30551 23.298 6.25023 23.298 6.25023 23.2436C5.97386 23.0261 5.64222 22.7543 5.42113 22.5368C5.36585 22.4824 5.36585 22.4824 5.31058 22.428C5.03421 22.2105 4.81311 21.9931 4.59202 21.7756C4.42619 21.6125 4.26037 21.4493 4.14982 21.3406C3.81818 21.0144 3.59708 20.7969 3.59708 20.7969L3.48654 20.96L3.15489 21.395L1.99414 22.7543C1.99414 22.7543 2.65743 23.9504 4.64729 25.4729C6.63715 26.9953 8.019 27.2671 8.019 27.2671L9.12448 25.8535L9.45612 25.4185L9.56667 25.3097C9.56667 25.3641 9.2903 25.2554 8.84811 24.9835Z" fill="#212121"/>
<path d="M3.48828 20.7969C4.31739 21.7212 5.31232 22.5911 6.30725 23.3524C7.30218 24.1136 8.40766 24.8204 9.51314 25.3641V25.4185C9.1815 25.3641 8.90513 25.2554 8.57348 25.1466C8.29711 25.0379 7.96547 24.8748 7.6891 24.766C7.08109 24.4942 6.52835 24.1136 6.03088 23.733C5.53342 23.3524 5.03595 22.9174 4.59376 22.428C4.15157 21.8843 3.76465 21.395 3.48828 20.7969Z" fill="#212121"/>
</svg>
