<svg width="29" height="37" viewBox="0 0 29 37" fill="none" xmlns="http://www.w3.org/2000/svg">
<path d="M28.6457 29.9956C28.4154 29.4641 28.0965 28.9857 27.689 28.5605C27.2815 28.1531 26.8032 27.8164 26.2539 27.6038C25.7047 27.3735 25.1024 27.2495 24.5 27.2495C23.8976 27.2495 23.2953 27.3735 22.7461 27.6038C22.2146 27.8342 21.7362 28.1531 21.311 28.5605C20.9035 28.968 20.5669 29.4464 20.3543 29.9956C20.124 30.5448 20 31.1471 20 31.7495C20 32.3519 20.124 32.9542 20.3543 33.5034C20.5846 34.0349 20.9035 34.5133 21.311 34.9385C21.7185 35.346 22.1969 35.6826 22.7461 35.8952C23.2953 36.1255 23.8976 36.2495 24.5 36.2495C25.1024 36.2495 25.7047 36.1255 26.2539 35.8952C26.7854 35.6649 27.2638 35.346 27.689 34.9385C28.0965 34.531 28.4331 34.0349 28.6457 33.5034C28.876 32.9542 29 32.3519 29 31.7495C29 31.1471 28.876 30.5448 28.6457 29.9956ZM27.2106 30.6511C26.8209 30.7928 26.0591 30.9346 25.9528 30.9523L24.6063 29.9779V28.9326C25.2795 28.6314 26.0591 28.6137 26.1654 28.6137C26.6614 28.9326 27.1575 29.4109 27.2638 29.4995C27.2461 29.8184 27.2283 30.4916 27.2106 30.6511ZM22.9409 28.596C23.065 28.596 23.8268 28.6314 24.5 28.9149V29.9779L23.1535 30.9523C23.0295 30.9346 22.2854 30.7928 21.8957 30.6511C21.8957 30.4916 21.8602 29.8007 21.8602 29.4995C21.9488 29.4109 22.4449 28.9326 22.9409 28.596ZM21.878 30.7574C22.2677 30.8991 22.9764 31.0409 23.1358 31.0586L23.6496 32.6353C23.5433 32.9011 23.2598 33.4149 23.189 33.5389C22.6575 33.5743 22.0906 33.4857 21.9843 33.468C21.5591 32.8657 21.2756 32.1393 21.2402 32.0153C21.3287 31.7318 21.7717 30.9346 21.878 30.7574ZM23.8622 34.779C23.7913 34.6727 23.4724 34.1412 23.2598 33.592C23.313 33.4857 23.5965 32.972 23.7205 32.6885H25.3681C25.4921 32.972 25.7756 33.4857 25.8287 33.592C25.7224 33.9286 25.4213 34.6373 25.3681 34.779C24.6594 34.8853 24.0039 34.7968 23.8622 34.779ZM27.1398 33.468C27.0335 33.4857 26.4665 33.5743 25.935 33.5389C25.8642 33.4149 25.5807 32.9011 25.4744 32.6353L25.9882 31.0763C26.1299 31.0586 26.8563 30.9168 27.2638 30.7751C27.3701 30.9523 27.7953 31.7495 27.9016 32.033C27.8484 32.1216 27.5827 32.8479 27.1398 33.468ZM27.4764 28.7731C27.6181 28.9149 27.7598 29.0743 27.8661 29.2338C27.6358 29.3046 27.4055 29.3932 27.3169 29.4286C27.2106 29.3223 26.7323 28.8794 26.2539 28.5605C26.2539 28.5428 26.1654 28.2062 26.0413 27.8519C26.0768 27.8696 26.1122 27.8696 26.1299 27.8873C26.6437 28.0822 27.0866 28.3834 27.4764 28.7731ZM21.5236 28.7731C21.9134 28.3834 22.3563 28.0822 22.8701 27.8696C22.9232 27.8519 22.9764 27.8164 23.0295 27.7987C22.9587 28.1176 22.9055 28.4365 22.8878 28.5251C22.3917 28.8617 21.9134 29.3046 21.7894 29.4109C21.6831 29.3755 21.3819 29.2692 21.1339 29.216C21.2579 29.0566 21.3819 28.9149 21.5236 28.7731ZM20.2835 31.7672C20.6024 31.909 21.0276 32.0153 21.1339 32.0507C21.187 32.1924 21.4528 32.9011 21.878 33.5034C21.7894 33.6097 21.4882 34.0172 21.2756 34.4779C20.9921 34.159 20.7795 33.7869 20.6024 33.3972C20.4075 32.8834 20.2835 32.3342 20.2835 31.7672ZM23.1713 35.7534C23.3661 35.4523 23.7382 34.9916 23.8268 34.8853C23.8445 34.8853 24.1811 34.9385 24.6417 34.9385C24.872 34.9385 25.1201 34.9208 25.4035 34.8853C25.4744 34.9916 25.7933 35.4168 25.9882 35.7003C25.5098 35.8775 25.0315 35.966 24.5177 35.966C24.0394 35.966 23.5965 35.8952 23.1713 35.7534ZM28.3799 33.3972C28.2205 33.7692 28.0079 34.1058 27.7598 34.4247C27.565 33.9995 27.3169 33.6275 27.2283 33.5212C27.6535 32.9188 27.9193 32.2101 27.9724 32.0684C28.0787 32.0507 28.3976 31.9621 28.6988 31.8381C28.6988 32.3696 28.5925 32.9011 28.3799 33.3972Z" fill="#212121"/>
<path d="M15.8534 36.7946C14.8134 36.7946 13.2845 36.6536 12.7542 36.4538C12.3375 36.2971 12.0517 35.8466 11.9863 35.2511C11.9036 34.4716 12.2273 33.6959 12.8093 33.2728C13.1846 33.0025 15.4884 29.0969 16.914 26.5976L14.8651 23.3148L11.6109 25.297C11.5386 25.3519 11.2941 25.5242 10.9153 25.5242C10.6708 25.5242 10.4194 25.4537 10.168 25.3088C10.168 25.3088 10.1543 25.3048 10.1267 25.3048C9.41735 25.3048 6.69003 27.4437 5.14042 28.7952C5.06467 28.8736 2.95375 30.9772 1.44891 30.9772C1.38348 30.9772 1.3215 30.9733 1.25607 30.9655C0.708538 30.895 0.377955 30.4954 0.395173 29.9195C0.422721 28.9519 1.57632 27.4633 3.96272 27.3106C4.74786 26.6172 5.27472 25.9512 5.74305 25.3636C6.40422 24.5292 6.98274 23.8006 8.00893 23.3697C7.85741 23.021 7.81953 22.6959 7.89184 22.3903C8.03303 21.8027 8.56334 21.4345 9.02134 21.1798C9.85124 20.2671 12.1274 16.9177 12.5682 16.2635C12.3651 15.5623 12.2617 14.3165 13.1502 13.8386C13.9629 13.3999 13.7666 11.876 13.7184 11.5744C13.7115 11.5274 13.7046 11.4999 13.6977 11.4843C13.5669 11.5156 13.2535 11.8133 13.0434 12.0131C12.8196 12.2246 12.5923 12.444 12.3651 12.6007C12.2066 12.7261 12.0517 12.7927 11.9036 12.7927C11.6316 12.7927 11.4697 12.5811 11.3595 12.4362L11.3492 12.4244C10.9532 12.8083 9.7376 14.3283 7.72655 16.9569C8.04336 17.3055 8.46348 17.9088 8.42215 18.3867C8.40494 18.5904 8.30852 18.751 8.15011 18.849L6.87254 19.6716C6.83811 19.6951 6.80023 19.7069 6.76235 19.7069C6.71414 19.7069 6.66593 19.6873 6.62461 19.652C6.61083 19.6403 5.30572 18.4612 6.35945 16.5299C7.20657 14.9786 9.35192 11.8407 9.89945 11.0494C9.82713 10.9437 9.75826 10.7948 9.76171 10.6185C9.76515 10.3717 9.89945 10.1563 10.1577 9.97606C10.7603 9.55298 12.9987 6.95966 13.3327 6.36422C13.6082 5.87063 14.9374 5.74135 15.6227 5.7061C15.7501 5.4828 16.0531 5.10282 16.6558 5.10282H16.7074C16.735 5.10673 16.7487 5.10673 16.7625 5.10673C16.8383 5.10673 16.8693 5.08323 16.8865 5.05973C17.0173 4.91086 17.0139 4.38593 17.0139 3.91976C17.0104 3.11669 17.007 2.11776 17.5442 1.50664C17.8541 1.15408 18.3087 0.973877 18.8975 0.973877C20.0305 0.977794 20.5677 1.51056 20.819 1.95714C21.277 2.76413 21.1737 3.91193 20.8673 4.69149C20.7846 4.9187 20.702 5.1224 20.6331 5.29477C20.5504 5.49847 20.4609 5.72568 20.4368 5.83537C20.7226 5.92155 20.9981 6.05474 21.1462 6.3603C21.3218 6.7207 21.2874 7.2378 21.0257 8.15447L21.0119 8.2054C20.7123 9.25526 20.3989 10.3404 20.7846 10.9515C21.0566 11.4451 21.308 11.9387 21.5456 12.4205C21.9348 13.2001 22.2998 13.9326 22.5512 14.1716L22.5718 14.1912C22.7543 14.4106 22.8232 14.6848 22.7612 14.959C22.6682 15.3742 22.317 15.6798 22.1069 15.7581C22.0312 15.7856 21.9382 15.7973 21.8246 15.7973C21.8005 15.7973 21.1978 15.7934 21.0119 15.5153C20.9051 15.3507 20.9223 15.1588 20.9396 14.9707C20.9568 14.7788 20.9774 14.579 20.8914 14.3596C20.6503 13.9757 20.4988 13.7368 20.3989 13.5762C20.3817 14.4654 20.454 16.3614 20.5573 18.1007C20.5642 18.2065 20.5126 18.3084 20.4265 18.3515L19.8445 18.6531C20.0442 19.8557 20.8569 24.8935 20.5436 25.7789C20.2336 26.6603 15.8982 32.6813 15.0648 33.833C15.1853 34.0367 15.4815 34.1934 15.819 34.3736C16.4526 34.7105 17.2446 35.1297 17.4547 36.2109C17.4753 36.3127 17.4512 36.4146 17.3961 36.4969C17.31 36.5948 17.1723 36.7946 15.8534 36.7946Z" fill="#212121"/>
</svg>
