<svg width="15" height="12" viewBox="0 0 15 12" fill="none" xmlns="http://www.w3.org/2000/svg">
<path d="M14.5531 1.58463C14.0169 1.82174 13.4456 1.9789 12.8499 2.05521C13.4627 1.68638 13.9304 1.10679 14.1503 0.408186C13.579 0.751581 12.9482 0.994138 12.2759 1.1295C11.7334 0.547179 10.9602 0.186523 10.1168 0.186523C8.48028 0.186523 7.16281 1.52558 7.16281 3.16716C7.16281 3.40336 7.18263 3.63047 7.23129 3.84668C4.77387 3.72586 2.5994 2.53851 1.13864 0.729778C0.883618 1.17583 0.734028 1.68638 0.734028 2.23599C0.734028 3.268 1.2612 4.18281 2.047 4.71244C1.57209 4.70335 1.1062 4.56436 0.711499 4.34542C0.711499 4.35451 0.711499 4.36632 0.711499 4.37813C0.711499 5.8262 1.7361 7.02899 3.07971 7.30607C2.83911 7.37239 2.57687 7.40418 2.30473 7.40418C2.11549 7.40418 1.92444 7.39328 1.74511 7.35331C2.1281 8.53339 3.21488 9.40096 4.50713 9.42912C3.50145 10.2222 2.22452 10.7001 0.842166 10.7001C0.599757 10.7001 0.367261 10.6891 0.134766 10.6592C1.44413 11.5104 2.99591 11.9964 4.66933 11.9964C10.1087 11.9964 13.0824 7.45415 13.0824 3.51691C13.0824 3.38519 13.0779 3.258 13.0716 3.13173C13.6583 2.71202 14.1512 2.18785 14.5531 1.58463Z" fill="#212121"/>
</svg>
