<svg width="12" height="13" viewBox="0 0 12 13" fill="none" xmlns="http://www.w3.org/2000/svg">
<path d="M8.34274 0.186523C7.703 0.231132 6.95526 0.643947 6.51952 1.18151C6.12202 1.66918 5.79502 2.3935 5.92252 3.0974C6.62151 3.11932 7.34376 2.69668 7.76225 2.15004C8.15375 1.64121 8.44999 0.921425 8.34274 0.186523Z" fill="#212121"/>
<path d="M10.8713 4.24566C10.2571 3.46917 9.39386 3.01855 8.57862 3.01855C7.50239 3.01855 7.04714 3.53798 6.2994 3.53798C5.52841 3.53798 4.94267 3.02007 4.01193 3.02007C3.09769 3.02007 2.1242 3.58334 1.50696 4.54658C0.639223 5.90297 0.787721 8.4532 2.19395 10.6254C2.6972 11.4026 3.36919 12.2767 4.24818 12.2842C5.03042 12.2918 5.25092 11.7784 6.31065 11.7731C7.37039 11.7671 7.57139 12.291 8.35213 12.2827C9.23187 12.2759 9.94061 11.3074 10.4438 10.5301C10.8046 9.9729 10.9388 9.6924 11.2186 9.06335C9.18387 8.28232 8.85762 5.3654 10.8713 4.24566Z" fill="#212121"/>
</svg>
