<svg width="13" height="12" viewBox="0 0 13 12" fill="none" xmlns="http://www.w3.org/2000/svg">
<path d="M10.4709 0.186523H1.951C1.52732 0.186523 1.121 0.356194 0.821409 0.65821C0.521822 0.960226 0.353516 1.36985 0.353516 1.79696L0.353516 10.386C0.353516 10.8131 0.521822 11.2227 0.821409 11.5247C1.121 11.8267 1.52732 11.9964 1.951 11.9964H10.4709C10.8946 11.9964 11.3009 11.8267 11.6005 11.5247C11.9001 11.2227 12.0684 10.8131 12.0684 10.386V1.79696C12.0684 1.36985 11.9001 0.960226 11.6005 0.65821C11.3009 0.356194 10.8946 0.186523 10.4709 0.186523ZM4.34723 9.53244C4.34732 9.56519 4.341 9.59763 4.32863 9.62791C4.31626 9.6582 4.29808 9.68572 4.27514 9.70891C4.2522 9.7321 4.22495 9.75049 4.19494 9.76305C4.16494 9.7756 4.13277 9.78206 4.10029 9.78206H3.04794C3.0154 9.78215 2.98316 9.77575 2.95308 9.76324C2.923 9.75073 2.89567 9.73234 2.87266 9.70915C2.84965 9.68595 2.83141 9.6584 2.819 9.62807C2.80659 9.59775 2.80025 9.56525 2.80033 9.53244V5.08494C2.80033 5.01874 2.82642 4.95525 2.87286 4.90844C2.91929 4.86162 2.98227 4.83533 3.04794 4.83533H4.10029C4.16584 4.8355 4.22865 4.86188 4.27494 4.90867C4.32124 4.95547 4.34723 5.01886 4.34723 5.08494V9.53244ZM3.57378 4.41393C3.37631 4.41393 3.18328 4.3549 3.01909 4.2443C2.85489 4.1337 2.72692 3.9765 2.65135 3.79258C2.57579 3.60866 2.55601 3.40629 2.59454 3.21104C2.63306 3.01579 2.72815 2.83645 2.86779 2.69568C3.00742 2.55492 3.18532 2.45905 3.379 2.42022C3.57268 2.38138 3.77343 2.40131 3.95587 2.4775C4.1383 2.55368 4.29424 2.68269 4.40395 2.84821C4.51366 3.01373 4.57221 3.20833 4.57221 3.4074C4.57221 3.67435 4.46702 3.93036 4.27978 4.11912C4.09254 4.30788 3.83858 4.41393 3.57378 4.41393ZM9.84791 9.54989C9.848 9.58005 9.84217 9.60993 9.83076 9.63781C9.81935 9.6657 9.80259 9.69103 9.78143 9.71236C9.76028 9.73368 9.73515 9.75059 9.70749 9.76209C9.67983 9.77359 9.65019 9.77946 9.62027 9.77938H8.48872C8.4588 9.77946 8.42916 9.77359 8.4015 9.76209C8.37384 9.75059 8.34871 9.73368 8.32755 9.71236C8.3064 9.69103 8.28963 9.6657 8.27822 9.63781C8.26682 9.60993 8.26099 9.58005 8.26108 9.54989V7.46638C8.26108 7.15503 8.3516 6.10288 7.45368 6.10288C6.75811 6.10288 6.61633 6.82288 6.58837 7.14631V9.55257C6.58838 9.61286 6.56485 9.67073 6.52288 9.71367C6.48091 9.75661 6.42386 9.78118 6.36406 9.78206H5.27111C5.24125 9.78206 5.21168 9.77612 5.1841 9.76458C5.15652 9.75304 5.13147 9.73612 5.11038 9.7148C5.0893 9.69348 5.07259 9.66818 5.06122 9.64034C5.04985 9.6125 5.04405 9.58268 5.04414 9.55257V5.06548C5.04405 5.03538 5.04985 5.00555 5.06122 4.97771C5.07259 4.94988 5.0893 4.92457 5.11038 4.90325C5.13147 4.88193 5.15652 4.86502 5.1841 4.85348C5.21168 4.84194 5.24125 4.836 5.27111 4.836H6.36406C6.42443 4.836 6.48234 4.86017 6.52503 4.90321C6.56772 4.94625 6.5917 5.00462 6.5917 5.06548V5.45333C6.84996 5.06213 7.23269 4.76151 8.04941 4.76151C9.85856 4.76151 9.84658 6.46455 9.84658 7.39995L9.84791 9.54989Z" fill="#212121"/>
</svg>
