<svg width="117" height="26" viewBox="0 0 117 26" fill="none" xmlns="http://www.w3.org/2000/svg">
<g filter="url(#filter0_d_278_2651)">
<g clip-path="url(#clip0_278_2651)">
<path d="M18.1864 0.00292969H6.57604C6.13629 0.00292969 5.71455 0.213588 5.40361 0.588562C5.09266 0.963536 4.91797 1.47211 4.91797 2.0024V2.0024V16.0035C4.91797 16.5338 5.09266 17.0423 5.40361 17.4173C5.71455 17.7923 6.13629 18.0029 6.57604 18.0029H18.1864C18.6255 18.0017 19.0462 17.7905 19.3563 17.4156C19.6664 17.0408 19.8406 16.5329 19.8406 16.0035V2.0024C19.8406 1.47293 19.6664 0.965073 19.3563 0.590235C19.0462 0.215397 18.6255 0.00418511 18.1864 0.00292969V0.00292969ZM7.95301 7.05027C7.93433 6.81323 7.92057 6.56907 7.91468 6.31662C7.89294 5.52253 7.94137 4.7279 8.05916 3.94617L8.11321 3.5906H16.6453L16.6994 3.94617C16.719 4.07892 16.7358 4.21285 16.7505 4.34204L16.7643 4.46056H8.71472C8.64287 5.05178 8.6136 5.64939 8.62724 6.24669H13.6889L13.6791 6.32966C13.6496 6.59159 13.6162 6.82982 13.5808 7.06331L13.571 7.12139H7.95891L7.95301 7.05027ZM16.8468 6.31662C16.8399 6.57026 16.8272 6.81678 16.8075 7.05027C16.781 7.37028 16.7456 7.68081 16.7004 7.97356C16.501 9.47216 16.0188 10.8955 15.291 12.1337C14.5659 13.34 13.6202 14.3287 12.5272 15.0233L12.3591 15.1299L12.1911 15.0221C11.1124 14.3204 10.1804 13.3318 9.46561 12.1313C8.7414 10.892 8.26167 9.46947 8.06309 7.97238C8.05719 7.9309 8.05129 7.8906 8.04638 7.85386L8.03753 7.78274L8.02574 7.69859H8.75108L8.75993 7.75904V7.8183C8.94052 9.19003 9.37744 10.4943 10.0376 11.6324C10.6514 12.662 11.441 13.5212 12.3532 14.1521C13.277 13.526 14.0774 12.6659 14.6993 11.6312C15.3656 10.4959 15.8071 9.19154 15.9898 7.8183C16.0242 7.59666 16.0527 7.3608 16.0753 7.11902H14.7769C14.7219 7.46273 14.6669 7.74719 14.6049 8.01386C14.4004 9.0247 14.0508 9.98459 13.572 10.8501C13.2902 11.3426 12.9638 11.7958 12.5989 12.2013L12.3581 12.4679L12.1154 12.2013C11.7478 11.7969 11.4206 11.3423 11.1404 10.8465C10.6459 9.98099 10.309 8.99906 10.1516 7.96527C10.1457 7.92378 10.1408 7.8823 10.1369 7.84674C10.1381 7.82585 10.1357 7.80489 10.13 7.78511L10.1212 7.70689H10.8426L10.8495 7.76852V7.83489C10.991 8.74437 11.289 9.60799 11.7242 10.3701C11.8048 10.5123 11.8972 10.6605 12.0043 10.8181V8.41802H12.7198V10.7683C12.8181 10.6249 12.8987 10.4922 12.9744 10.3594C13.4091 9.57226 13.7251 8.6988 13.9081 7.77919C14.1044 6.92905 14.216 6.0537 14.2403 5.17169V5.09939L14.9548 5.12784V5.20132C14.946 5.52133 14.9224 5.86268 14.8841 6.24314H16.8409L16.8468 6.31662Z" fill="#F90E13"/>
<path d="M14.9614 5.20154V5.12805L14.2469 5.09961V5.17191C14.2225 6.05391 14.111 6.92926 13.9147 7.7794C13.7317 8.69901 13.4156 9.57248 12.9809 10.3596C12.9053 10.4924 12.8217 10.6251 12.7264 10.7685V8.41824H12.0109V10.8076C11.9037 10.65 11.8143 10.5019 11.7308 10.3596C11.2955 9.59796 10.9976 8.73473 10.856 7.82563V7.75925L10.8491 7.69762H10.1199L10.1287 7.7794C10.13 7.80009 10.1323 7.82066 10.1356 7.84103C10.1375 7.88099 10.1425 7.92066 10.1503 7.95956C10.3077 8.99298 10.6446 9.97454 11.1391 10.8397C11.4193 11.3354 11.7465 11.79 12.1141 12.1944L12.3568 12.461L12.5976 12.1944C12.9625 11.7889 13.2889 11.3357 13.5707 10.8432C14.0483 9.97889 14.3972 9.02068 14.6017 8.01171C14.6636 7.74503 14.7186 7.46058 14.7737 7.11686H16.0789C16.0563 7.35391 16.0278 7.59095 15.9934 7.81614C15.8107 9.18939 15.3692 10.4938 14.7029 11.629C14.0807 12.6638 13.28 13.5239 12.3559 14.15C11.4436 13.5191 10.6541 12.6599 10.0403 11.6302C9.38007 10.4921 8.94315 9.18787 8.76255 7.81614V7.75688L8.74978 7.69644H8.02148L8.03328 7.78059L8.04212 7.8517C8.04474 7.89173 8.05033 7.9314 8.05883 7.97022C8.25735 9.46713 8.73672 10.8896 9.46038 12.1292C10.1764 13.3295 11.1099 14.3172 12.1898 15.0176L12.3578 15.1254L12.5259 15.0188C13.6201 14.3264 14.5671 13.3393 15.2936 12.1339C16.0244 10.8966 16.5093 9.47322 16.7109 7.97378C16.7561 7.68103 16.7915 7.3705 16.818 7.05049C16.8376 6.81344 16.8504 6.5764 16.8573 6.31683V6.24217H14.8916C14.929 5.86289 14.9525 5.52155 14.9614 5.20154Z" fill="white"/>
<path d="M13.5784 7.0585C13.6177 6.82146 13.6511 6.58441 13.6767 6.32485L13.6865 6.24188H8.62874C8.61509 5.643 8.64436 5.04382 8.71621 4.45101H16.7667L16.753 4.33249C16.7382 4.2033 16.7215 4.06937 16.7019 3.93662L16.6478 3.58105H8.11765L8.0636 3.93662C7.94581 4.71835 7.89738 5.51298 7.91912 6.30707C7.92501 6.55952 7.93877 6.80724 7.95745 7.04073L7.96335 7.1071H13.5685L13.5784 7.0585Z" fill="white"/>
<path d="M23.5576 7.75458L23.5477 7.80791V7.8245C23.4907 8.0756 23.4837 8.33939 23.5272 8.59438C23.5708 8.84937 23.6637 9.08834 23.7984 9.29181C23.9251 9.49279 24.0899 9.65419 24.2791 9.76246C24.4682 9.87073 24.6762 9.92272 24.8854 9.91405H27.3494C27.3777 9.91315 27.4058 9.92089 27.431 9.93657C27.4567 9.9528 27.479 9.97602 27.4961 10.0044C27.5131 10.0328 27.5245 10.0656 27.5293 10.1001C27.5328 10.1352 27.5288 10.1707 27.5175 10.2032C27.5096 10.2352 27.4988 10.2933 27.4811 10.3751C27.4634 10.4569 27.4487 10.547 27.429 10.6442C27.4094 10.7413 27.3868 10.861 27.3563 11.0068C27.3446 11.0583 27.3188 11.1035 27.2831 11.1352C27.2474 11.1668 27.204 11.183 27.1597 11.1811H22.8666C22.8568 11.2427 22.8332 11.3707 22.7939 11.5651C22.7546 11.7594 22.7133 11.9728 22.6661 12.2063C22.619 12.4398 22.5678 12.7242 22.4961 13.0727H27.3789C27.7095 13.0785 28.0316 12.9457 28.29 12.697C28.5483 12.4481 28.7327 12.105 28.8158 11.7191C28.8227 11.6706 28.8424 11.5663 28.8758 11.4051C28.9092 11.2439 28.9456 11.0685 28.9839 10.88C29.0222 10.6916 29.0556 10.5244 29.0822 10.3881C29.1087 10.2518 29.1244 10.1748 29.1244 10.1665C29.1276 10.1614 29.1293 10.1551 29.1293 10.1487C29.1843 9.8986 29.1904 9.6365 29.147 9.38307C29.103 9.12941 29.0112 8.89136 28.8787 8.68735C28.7547 8.48343 28.5916 8.3188 28.4033 8.20754C28.215 8.09628 28.0072 8.04171 27.7976 8.04851H25.3503C25.3222 8.04963 25.2942 8.04272 25.2687 8.02836C25.2435 8.01344 25.2216 7.99151 25.2048 7.96436C25.1865 7.93646 25.1734 7.90411 25.1665 7.86953C25.1595 7.83496 25.1589 7.79897 25.1645 7.76406C25.1714 7.73206 25.1832 7.67517 25.1999 7.5922C25.2166 7.50923 25.2333 7.42034 25.252 7.32315L25.2599 7.2876H23.6549C23.6106 7.50686 23.5782 7.66213 23.5576 7.75458Z" fill="#F90E13"/>
<path d="M29.8894 6.41352C29.9277 6.22033 29.971 6.00936 30.0172 5.78179C30.0634 5.55423 30.1204 5.26978 30.1872 4.92725H25.3005C24.6321 4.92725 24.1564 5.36617 23.8734 6.24403C23.8635 6.28907 23.8468 6.37322 23.8223 6.49056H29.8747C29.8815 6.46448 29.8815 6.44196 29.8894 6.41352Z" fill="#F90E13"/>
<path d="M34.9037 8.37968C34.8907 8.43183 34.8633 8.47703 34.826 8.50768C34.7885 8.53837 34.7435 8.55298 34.6982 8.54916H31.8745C31.96 8.09285 32.0269 7.73729 32.0711 7.48246L32.1084 7.28927H30.3717C30.355 7.36868 30.3383 7.45402 30.3196 7.54291L29.8518 9.85647C29.6801 10.7075 29.4639 11.7793 29.2031 13.072H30.8956C30.9094 13.0115 30.9428 12.842 30.9939 12.5647C31.045 12.2874 31.1108 11.9721 31.1777 11.6343C31.2432 11.3135 31.2982 11.0342 31.3428 10.7963C31.387 10.57 31.4116 10.4491 31.4165 10.4277C31.4165 10.4277 31.4165 10.4277 31.4224 10.4277L34.9233 10.4467C35.2578 10.4517 35.5834 10.3173 35.8452 10.0663C36.1051 9.82506 36.2887 9.4837 36.3652 9.09911C36.4192 8.82651 36.4782 8.5302 36.543 8.21256C36.5961 7.95655 36.659 7.64721 36.7318 7.28809H35.1386L34.9037 8.37968Z" fill="#F90E13"/>
<path d="M36.4893 5.56336C36.3519 5.35774 36.1768 5.19335 35.9777 5.08312C35.7787 4.97289 35.5612 4.91982 35.3423 4.92808H32.0173C31.3208 4.92808 30.8386 5.37689 30.5706 6.2745C30.5617 6.32072 30.546 6.39302 30.5273 6.49139H36.8058C36.7871 6.1487 36.6759 5.82278 36.4893 5.56336Z" fill="#F90E13"/>
<path d="M43.8663 5.56179C43.7161 5.35482 43.5296 5.19061 43.3204 5.08096C43.1112 4.97132 42.8844 4.91897 42.6564 4.92769H39.1752C38.831 4.91594 38.4933 5.04156 38.2145 5.28502C37.9356 5.52849 37.7313 5.87619 37.6331 6.27411L37.5898 6.491H44.2142C44.1865 6.14346 44.0641 5.81675 43.8663 5.56179V5.56179Z" fill="#F90E13"/>
<path d="M42.2537 7.8321C42.1731 8.23429 42.0827 8.67914 41.9825 9.16667C41.8822 9.65419 41.7587 10.2681 41.6119 11.0085C41.6025 11.0664 41.5755 11.1179 41.5362 11.1531C41.498 11.1897 41.4504 11.209 41.4016 11.2076H38.6781C38.6474 11.2077 38.617 11.2004 38.5887 11.1863C38.56 11.1722 38.5341 11.1508 38.513 11.1235C38.4919 11.0976 38.4764 11.0658 38.4678 11.031C38.4588 10.9965 38.4571 10.9598 38.4629 10.9244C38.4855 10.8236 38.5376 10.5688 38.6172 10.1682C38.6968 9.76757 38.7872 9.32075 38.8855 8.8348C38.9838 8.34886 39.0703 7.92337 39.144 7.56306L39.2 7.28927H37.4309L37.1282 8.77199C37.0096 9.35749 36.8618 10.0931 36.6849 10.9789C36.6373 11.2351 36.642 11.5015 36.6986 11.755C36.7553 12.0085 36.8622 12.2417 37.0102 12.4343C37.1623 12.6431 37.3507 12.8088 37.5621 12.9194C37.7735 13.0301 38.0026 13.083 38.2329 13.0744H41.6935C42.0387 13.0955 42.3796 12.9735 42.6592 12.7285C42.9389 12.4835 43.1406 12.1304 43.2307 11.7279C43.2572 11.6023 43.3221 11.2835 43.4272 10.7726C43.5324 10.2618 43.6425 9.70594 43.7653 9.09674C43.8882 8.48753 43.9924 7.98144 44.0759 7.56661L44.1319 7.28809H42.3608C42.3353 7.42202 42.2999 7.59743 42.2537 7.8321Z" fill="#F90E13"/>
<path d="M49.2909 8.37633C49.2773 8.42807 49.25 8.47302 49.2132 8.50433C49.1757 8.53503 49.1307 8.54964 49.0855 8.54582H46.3109L46.5458 7.29067H44.8248L43.6641 13.0627H45.3349C45.3487 13.0023 45.3821 12.834 45.4332 12.559C45.4843 12.284 45.5472 11.977 45.614 11.6416L45.7841 10.774C45.8244 10.5607 45.845 10.4493 45.8499 10.4362H46.8868L48.194 13.0757H49.9799L48.6805 10.4327H49.2909C49.623 10.4389 49.9468 10.3071 50.2079 10.0593C50.4658 9.81572 50.6491 9.47543 50.7288 9.09221C50.7819 8.81802 50.8402 8.52211 50.9037 8.20447C50.9548 7.94965 51.0168 7.64149 51.0885 7.28711H49.5287L49.2909 8.37633Z" fill="#F90E13"/>
<path d="M50.8589 5.5619C50.7251 5.35828 50.5538 5.19499 50.3587 5.08494C50.1635 4.97489 49.9498 4.92109 49.7345 4.92781H46.4567C45.7687 4.92781 45.2927 5.37463 45.0286 6.26829L44.9844 6.49112H51.1685C51.15 6.14952 51.0415 5.82397 50.8589 5.5619V5.5619Z" fill="#F90E13"/>
<path d="M58.2649 4.92725H52.2891L51.9727 6.49056H57.9474L58.2649 4.92725Z" fill="#F90E13"/>
<path d="M52.8203 13.0741H54.4174L55.6146 7.28906H54.0351L52.8203 13.0741Z" fill="#F90E13"/>
<path d="M58.4706 7.75458L58.4608 7.80791V7.8245C58.4029 8.07521 58.3958 8.33902 58.4402 8.59371C58.4833 8.8491 58.5763 9.0884 58.7114 9.29181C58.8374 9.49201 59.0013 9.65296 59.1894 9.76121C59.3774 9.86945 59.5843 9.92186 59.7926 9.91405H62.2566C62.2849 9.91315 62.313 9.92089 62.3382 9.93657C62.3635 9.9528 62.3854 9.97593 62.402 10.0041C62.4195 10.0323 62.4306 10.0653 62.4345 10.1001C62.4377 10.1353 62.4333 10.1708 62.4217 10.2032C62.4148 10.2352 62.403 10.2933 62.3883 10.3751C62.3735 10.4569 62.3559 10.547 62.3362 10.6442C62.3165 10.7413 62.2929 10.861 62.2635 11.0068C62.2518 11.0581 62.2262 11.1032 62.1907 11.1348C62.155 11.1659 62.1119 11.1822 62.0679 11.1811H57.7807C57.7709 11.2427 57.7473 11.3707 57.7089 11.5651C57.6706 11.7594 57.6274 11.9728 57.5812 12.2063C57.535 12.4398 57.478 12.7242 57.4102 13.0727H62.293C62.6236 13.0785 62.9456 12.9457 63.2041 12.697C63.4626 12.4484 63.6472 12.1052 63.7299 11.7191C63.7368 11.6706 63.7574 11.5663 63.7908 11.4051C63.8242 11.2439 63.8596 11.0685 63.8979 10.88L63.9962 10.3881C64.0247 10.2483 64.0385 10.1748 64.0385 10.1665C64.0416 10.1612 64.0436 10.1551 64.0444 10.1487C64.0988 9.89832 64.1045 9.63613 64.0611 9.38262C64.0176 9.12912 63.9261 8.89117 63.7938 8.68735C63.6698 8.48343 63.5067 8.3188 63.3184 8.20754C63.1301 8.09628 62.9222 8.04171 62.7126 8.04851H60.2653C60.2372 8.04963 60.2093 8.04272 60.1838 8.02836C60.1586 8.01344 60.1366 7.99151 60.1199 7.96436C60.1016 7.93646 60.0885 7.90411 60.0815 7.86953C60.0746 7.83496 60.0739 7.79897 60.0796 7.76406C60.0865 7.73206 60.0982 7.67517 60.115 7.5922C60.1317 7.50923 60.1484 7.42034 60.168 7.32315L60.1749 7.2876H58.5699C58.5237 7.50686 58.4913 7.66094 58.4706 7.75458Z" fill="#F90E13"/>
<path d="M64.7937 6.41352L64.9215 5.78179C64.968 5.55423 65.025 5.26938 65.0925 4.92725H60.2048C59.5377 4.92725 59.062 5.36617 58.7777 6.24403C58.7678 6.28907 58.7511 6.37322 58.7266 6.49056H64.7799C64.7839 6.46448 64.7888 6.44196 64.7937 6.41352Z" fill="#F90E13"/>
<path d="M77.4258 4.92725H75.4178L74.8281 6.49056H76.7938L77.4258 4.92725Z" fill="#F90E13"/>
<path d="M73.061 4.92725H71.459L71.5396 6.49056H73.1495L73.061 4.92725Z" fill="#F90E13"/>
<path d="M69.7694 4.92725H67.9609L68.0376 6.49056H69.8225L69.7694 4.92725Z" fill="#F90E13"/>
<path d="M73.3717 10.3861L73.1958 7.28906H71.3392L69.9612 10.5496L69.8512 7.29499H68.082L68.2865 11.4611C68.3072 11.9031 68.4688 12.3185 68.7376 12.6202C68.9969 12.9209 69.344 13.0861 69.7037 13.0801H70.6807L71.7372 10.4726L71.8621 13.0801H74.1757L76.4874 7.29499H74.5325L73.3717 10.3861Z" fill="#F90E13"/>
<path d="M81.2178 10.827L80.7617 13.0789H82.3628L83.5225 7.28906H81.9293L81.2178 10.827Z" fill="#F90E13"/>
<path d="M76.3145 13.0741H77.9018L78.3529 10.8341H80.7461L81.1265 8.96141H78.7254L79.0615 7.28906H77.486L76.3145 13.0741Z" fill="#F90E13"/>
<path d="M83.9977 4.92725H79.0834C78.419 4.92725 77.9551 5.37605 77.6917 6.27366L77.6465 6.49056H83.6802L83.9977 4.92725Z" fill="#F90E13"/>
<path d="M89.2934 9.15363L87.9853 7.28809H84.277L83.1133 13.0732H84.7163L85.8535 7.34972L88.7824 11.5525L88.4816 13.0744H90.064L91.2228 7.28927H89.6453L89.2934 9.15363Z" fill="#F90E13"/>
<path d="M91.6928 4.92725H90.0898L89.7949 6.49056H91.3803L91.6928 4.92725Z" fill="#F90E13"/>
<path d="M86.3266 4.92725H85.8961C85.2343 4.92725 84.7619 5.37605 84.4788 6.27366L84.4355 6.49056H87.4234L86.3266 4.92725Z" fill="#F90E13"/>
<path d="M98.2461 5.56148C98.1079 5.35704 97.9326 5.19357 97.7337 5.08364C97.5349 4.97371 97.3178 4.92026 97.0991 4.92739H93.3938C93.1733 4.92677 92.9587 5.01383 92.7834 5.1751C92.604 5.32772 92.4758 5.5526 92.4217 5.8092C92.4198 5.81529 92.4198 5.82206 92.4217 5.82816C92.4158 5.85542 92.3726 6.07587 92.291 6.48477H98.5626C98.5421 6.14399 98.4312 5.82022 98.2461 5.56148V5.56148Z" fill="#F90E13"/>
<path d="M96.4746 9.00945L96.1916 10.4139C96.107 10.8359 96.053 11.0994 96.0294 11.2045H93.0189C93.1854 10.3764 93.3246 9.687 93.4366 9.13627C93.5487 8.58553 93.6496 8.08537 93.7394 7.63577L93.8091 7.28613H92.1295L91.7363 9.26072L91.2449 11.7248L90.9746 13.0712H96.1474C96.8412 13.0712 97.3219 12.6224 97.5892 11.7248C97.7648 10.8383 97.9116 10.1022 98.0295 9.51672L98.3509 7.91667C98.404 7.64763 98.4492 7.44258 98.4777 7.28613H96.8216C96.685 7.97001 96.569 8.5484 96.4746 9.00945Z" fill="#F90E13"/>
<path d="M98.4893 10.9843C98.4353 11.2367 98.4333 11.5012 98.4834 11.7547C98.5344 12.0084 98.6355 12.2435 98.7783 12.4398C98.9144 12.6455 99.0884 12.8103 99.2864 12.921C99.4851 13.0303 99.702 13.083 99.9204 13.0751H103.887C104.024 12.4018 104.148 11.7816 104.258 11.2142H100.347C100.318 11.2155 100.29 11.2086 100.263 11.1941C100.237 11.1797 100.214 11.1577 100.197 11.1301C100.177 11.103 100.163 11.071 100.155 11.0365C100.149 11.0017 100.149 10.9657 100.155 10.931L100.352 9.94013H103.101L103.456 8.07459H100.723L100.88 7.2959H99.2284L98.4893 10.9843Z" fill="#F90E13"/>
<path d="M105.521 4.92725H100.879C100.183 4.92725 99.7012 5.37605 99.4319 6.27366L99.3887 6.49056H105.211L105.521 4.92725Z" fill="#F90E13"/>
<path d="M110.21 8.37633C110.197 8.42848 110.17 8.47368 110.132 8.50433C110.095 8.53503 110.05 8.54964 110.004 8.54582H107.227L107.462 7.29067H105.742L104.58 13.0627H106.251C106.265 13.0023 106.298 12.834 106.349 12.559C106.4 12.284 106.463 11.977 106.53 11.6416C106.597 11.3062 106.653 11.0158 106.7 10.774C106.74 10.5607 106.762 10.4493 106.766 10.4362H107.803L109.11 13.0757H110.897L109.599 10.4327H110.211C110.543 10.4389 110.866 10.3071 111.127 10.0593C111.385 9.81572 111.568 9.47543 111.648 9.09221C111.701 8.81802 111.759 8.52211 111.823 8.20447C111.874 7.94965 111.936 7.64149 112.008 7.28711H110.448L110.21 8.37633Z" fill="#F90E13"/>
<path d="M111.783 5.56151C111.649 5.3574 111.477 5.19381 111.281 5.08374C111.086 4.97367 110.871 4.92014 110.655 4.92741H107.381C106.693 4.92741 106.217 5.37424 105.953 6.2679L105.908 6.49072H112.092C112.073 6.14926 111.965 5.82388 111.783 5.56151V5.56151Z" fill="#F90E13"/>
</g>
</g>
<defs>
<filter id="filter0_d_278_2651" x="0.912109" y="0.000976562" width="115.176" height="26" filterUnits="userSpaceOnUse" color-interpolation-filters="sRGB">
<feFlood flood-opacity="0" result="BackgroundImageFix"/>
<feColorMatrix in="SourceAlpha" type="matrix" values="0 0 0 0 0 0 0 0 0 0 0 0 0 0 0 0 0 0 127 0" result="hardAlpha"/>
<feOffset dy="4"/>
<feGaussianBlur stdDeviation="2"/>
<feComposite in2="hardAlpha" operator="out"/>
<feColorMatrix type="matrix" values="0 0 0 0 0 0 0 0 0 0 0 0 0 0 0 0 0 0 0.25 0"/>
<feBlend mode="normal" in2="BackgroundImageFix" result="effect1_dropShadow_278_2651"/>
<feBlend mode="normal" in="SourceGraphic" in2="effect1_dropShadow_278_2651" result="shape"/>
</filter>
<clipPath id="clip0_278_2651">
<rect width="107.175" height="18" fill="white" transform="translate(4.91211 0.000976562)"/>
</clipPath>
</defs>
</svg>
