<svg width="49" height="48" viewBox="0 0 49 48" fill="none" xmlns="http://www.w3.org/2000/svg">
<path d="M13.4961 40C10.4628 40 7.87143 38.95 5.72209 36.85C3.57143 34.75 2.49609 32.1833 2.49609 29.15C2.49609 26.55 3.27943 24.2333 4.84609 22.2C6.41276 20.1667 8.46276 18.8667 10.9961 18.3C11.8294 15.2333 13.4961 12.75 15.9961 10.85C18.4961 8.95 21.3294 8 24.4961 8C28.3961 8 31.7041 9.358 34.4201 12.074C37.1374 14.7913 38.4961 18.1 38.4961 22C40.7961 22.2667 42.7048 23.258 44.2221 24.974C45.7381 26.6913 46.4961 28.7 46.4961 31C46.4961 33.5 45.6214 35.6253 43.8721 37.376C42.1214 39.1253 39.9961 40 37.4961 40H13.4961Z" fill="#0A2647"/>
</svg>
