<svg width="49" height="48" viewBox="0 0 49 48" fill="none" xmlns="http://www.w3.org/2000/svg">
<path d="M37.4197 39C35.7597 41.48 33.9997 43.9 31.3197 43.94C28.6397 44 27.7797 42.36 24.7397 42.36C21.6797 42.36 20.7397 43.9 18.1997 44C15.5797 44.1 13.5997 41.36 11.9197 38.94C8.4997 34 5.8797 24.9 9.3997 18.78C11.1397 15.74 14.2597 13.82 17.6397 13.76C20.1997 13.72 22.6397 15.5 24.2197 15.5C25.7797 15.5 28.7397 13.36 31.8397 13.68C33.1397 13.74 36.7797 14.2 39.1197 17.64C38.9397 17.76 34.7797 20.2 34.8197 25.26C34.8797 31.3 40.1197 33.32 40.1797 33.34C40.1197 33.48 39.3397 36.22 37.4197 39ZM25.9997 7C27.4597 5.34 29.8797 4.08 31.8797 4C32.1397 6.34 31.1997 8.7 29.7997 10.38C28.4197 12.08 26.1397 13.4 23.8997 13.22C23.5997 10.92 24.7197 8.52 25.9997 7Z" fill="#0A2647"/>
</svg>
