<svg width="157" height="22" viewBox="0 0 157 22" fill="none" xmlns="http://www.w3.org/2000/svg">
<g clip-path="url(#clip0_145_1298)">
<path d="M18.4988 0.210938H1.43663C0.790397 0.210938 0.17063 0.455599 -0.286327 0.8911C-0.743284 1.3266 -1 1.91727 -1 2.53316H-1V18.7942C-1 19.4101 -0.743284 20.0008 -0.286327 20.4363C0.17063 20.8718 0.790397 21.1164 1.43663 21.1164H18.4988C19.1441 21.115 19.7623 20.8696 20.2181 20.4343C20.6738 19.999 20.9297 19.4091 20.9297 18.7942V2.53316C20.9297 1.91822 20.6738 1.32839 20.2181 0.893043C19.7623 0.457701 19.1441 0.212396 18.4988 0.210938V0.210938ZM3.46018 8.39583C3.43273 8.12052 3.41251 7.83696 3.40385 7.54375C3.3719 6.62148 3.44307 5.69859 3.61617 4.79068L3.69561 4.37772H16.2341L16.3135 4.79068C16.3424 4.94485 16.367 5.1004 16.3886 5.25044L16.4088 5.3881H4.57955C4.47396 6.07474 4.43095 6.76882 4.45101 7.46254H11.8894L11.875 7.55889C11.8317 7.86311 11.7826 8.13979 11.7306 8.41097L11.7161 8.47842H3.46884L3.46018 8.39583ZM16.5302 7.54375C16.5201 7.83833 16.5013 8.12465 16.4724 8.39583C16.4334 8.76749 16.3814 9.12815 16.315 9.46815C16.022 11.2086 15.3134 12.8617 14.2438 14.2998C13.1782 15.7008 11.7884 16.8491 10.1822 17.6558L9.93523 17.7797L9.68825 17.6544C8.10315 16.8395 6.73348 15.6913 5.68304 14.297C4.61876 12.8577 3.91377 11.2055 3.62194 9.46678C3.61328 9.4186 3.60461 9.37179 3.59739 9.32912L3.58439 9.24653L3.56706 9.1488H4.633L4.64599 9.219V9.28783C4.91139 10.881 5.55347 12.3957 6.52366 13.7175C7.42568 14.9134 8.58601 15.9113 9.92657 16.644C11.2842 15.9168 12.4604 14.918 13.3742 13.7161C14.3534 12.3977 15.0022 10.8827 15.2707 9.28783C15.3212 9.03041 15.3631 8.75648 15.3963 8.47567H13.4884C13.4075 8.87486 13.3266 9.20523 13.2356 9.51495C12.9351 10.689 12.4213 11.8038 11.7176 12.809C11.3034 13.381 10.8239 13.9073 10.2877 14.3783L9.93379 14.688L9.57703 14.3783C9.03687 13.9087 8.55602 13.3806 8.14423 12.8049C7.4176 11.7996 6.92241 10.6592 6.69121 9.45852C6.68254 9.41034 6.67532 9.36216 6.66954 9.32086C6.67127 9.2966 6.66783 9.27225 6.65943 9.24928L6.64643 9.15843H7.70659L7.7167 9.23001V9.3071C7.92466 10.3634 8.36256 11.3664 9.00218 12.2515C9.12061 12.4167 9.25638 12.5888 9.41382 12.7718V9.98435H10.4653V12.714C10.6097 12.5475 10.7282 12.3933 10.8394 12.2391C11.4782 11.3249 11.9427 10.3104 12.2115 9.2424C12.5001 8.25504 12.664 7.23839 12.6997 6.21402V6.13005L13.7498 6.16309V6.24843C13.7368 6.6201 13.7021 7.01654 13.6458 7.45841H16.5215L16.5302 7.54375Z" fill="#F90E13"/>
<path d="M13.7611 6.24827V6.16292L12.7111 6.12988V6.21385C12.6753 7.23823 12.5114 8.25487 12.2229 9.24223C11.954 10.3103 11.4895 11.3247 10.8507 12.239C10.7395 12.3931 10.6167 12.5473 10.4766 12.7139V9.98419H9.42515V12.7593C9.26771 12.5762 9.13628 12.4041 9.01351 12.239C8.37393 11.3543 7.93602 10.3518 7.72803 9.29592V9.21883L7.71792 9.14725H6.6462L6.6592 9.24223C6.66115 9.26626 6.66453 9.29015 6.66931 9.31381C6.67218 9.36023 6.67943 9.4063 6.69098 9.45147C6.92217 10.6517 7.41737 11.7917 8.144 12.7965C8.5558 13.3722 9.03665 13.9002 9.57681 14.3698L9.93356 14.6796L10.2874 14.3698C10.8236 13.8989 11.3032 13.3726 11.7173 12.8006C12.4193 11.7968 12.932 10.6839 13.2325 9.51204C13.3235 9.20231 13.4044 8.87195 13.4852 8.47275H15.4033C15.3701 8.74806 15.3282 9.02336 15.2777 9.28491C15.0092 10.8798 14.3604 12.3948 13.3812 13.7132C12.4669 14.9151 11.2902 15.914 9.93212 16.6411C8.59156 15.9084 7.43123 14.9105 6.52921 13.7146C5.55902 12.3928 4.91694 10.8781 4.65155 9.28491V9.21608L4.63277 9.14588H3.5625L3.57983 9.24361L3.59283 9.3262C3.59667 9.3727 3.60489 9.41877 3.61739 9.46386C3.90912 11.2024 4.61358 12.8545 5.67704 14.2941C6.72935 15.6881 8.10105 16.8354 9.68802 17.6487L9.93501 17.774L10.182 17.6501C11.7899 16.8461 13.1817 15.6995 14.2493 14.2996C15.3232 12.8626 16.0358 11.2095 16.3321 9.46799C16.3985 9.12798 16.4505 8.76733 16.4895 8.39566C16.5184 8.12036 16.5372 7.84505 16.5473 7.54359V7.45686H13.6586C13.7134 7.01637 13.7481 6.61993 13.7611 6.24827Z" fill="white"/>
<path d="M11.7244 8.40497C11.7822 8.12966 11.8313 7.85436 11.8689 7.55289L11.8833 7.45654H4.45065C4.43059 6.76099 4.4736 6.06509 4.57919 5.37659H16.4099L16.3897 5.23894C16.368 5.08889 16.3435 4.93334 16.3146 4.77917L16.2352 4.36621H3.69958L3.62014 4.77917C3.44704 5.68708 3.37587 6.60997 3.40782 7.53225C3.41649 7.82545 3.43671 8.11315 3.46415 8.38432L3.47282 8.46141H11.71L11.7244 8.40497Z" fill="white"/>
<path d="M26.3998 9.21423L26.3853 9.27617V9.29545C26.3015 9.58707 26.2911 9.89344 26.3552 10.1896C26.4192 10.4857 26.5557 10.7633 26.7536 10.9996C26.9398 11.233 27.1821 11.4205 27.4601 11.5462C27.738 11.672 28.0436 11.7323 28.3511 11.7223H31.9721C32.0137 11.7212 32.055 11.7302 32.092 11.7484C32.1298 11.7673 32.1626 11.7942 32.1876 11.8272C32.2127 11.8602 32.2294 11.8982 32.2364 11.9384C32.2417 11.9791 32.2357 12.0204 32.2191 12.0582C32.2075 12.0953 32.1916 12.1628 32.1656 12.2578C32.1396 12.3527 32.118 12.4574 32.0891 12.5702C32.0602 12.6831 32.027 12.8221 31.9822 12.9914C31.965 13.0513 31.9271 13.1038 31.8747 13.1405C31.8223 13.1772 31.7583 13.196 31.6933 13.1938H25.3844C25.3699 13.2654 25.3353 13.414 25.2775 13.6398C25.2197 13.8656 25.159 14.1133 25.0897 14.3845C25.0204 14.6557 24.9453 14.9861 24.8398 15.3908H32.0154C32.5013 15.3975 32.9745 15.2433 33.3543 14.9544C33.7339 14.6653 34.005 14.2669 34.1271 13.8187C34.1372 13.7623 34.1661 13.6412 34.2152 13.454C34.2643 13.2668 34.3177 13.063 34.3741 12.8442C34.4304 12.6253 34.4795 12.4312 34.5185 12.2729C34.5575 12.1146 34.5806 12.0251 34.5806 12.0155C34.5853 12.0095 34.5878 12.0023 34.5878 11.9948C34.6686 11.7043 34.6775 11.3999 34.6138 11.1056C34.5492 10.811 34.4142 10.5345 34.2195 10.2976C34.0373 10.0607 33.7976 9.86953 33.5209 9.74031C33.2442 9.61109 32.9387 9.54772 32.6307 9.55561H29.0343C28.9929 9.55691 28.9519 9.54889 28.9144 9.53221C28.8773 9.51488 28.8452 9.4894 28.8205 9.45788C28.7936 9.42547 28.7744 9.3879 28.7642 9.34774C28.7539 9.30758 28.7529 9.26579 28.7613 9.22524C28.7714 9.18808 28.7887 9.122 28.8133 9.02565C28.8378 8.92929 28.8624 8.82605 28.8898 8.71317L28.9014 8.67188H26.5427C26.4777 8.92653 26.4301 9.10686 26.3998 9.21423Z" fill="#F90E13"/>
<path d="M35.6973 7.65782C35.7536 7.43344 35.8172 7.18842 35.885 6.92412C35.9529 6.65983 36.0367 6.32946 36.1349 5.93164H28.9536C27.9714 5.93164 27.2723 6.44142 26.8564 7.46097C26.8419 7.51328 26.8174 7.61102 26.7812 7.74729H35.6756C35.6857 7.71701 35.6857 7.69086 35.6973 7.65782Z" fill="#F90E13"/>
<path d="M43.0687 9.94162C43.0497 10.0022 43.0094 10.0547 42.9546 10.0903C42.8994 10.1259 42.8333 10.1429 42.7668 10.1385H38.6172C38.7428 9.6085 38.841 9.19554 38.906 8.89958L38.9609 8.6752H36.4087C36.3842 8.76743 36.3596 8.86654 36.3322 8.96978L35.6447 11.6568C35.3924 12.6451 35.0746 13.89 34.6914 15.3913H37.1786C37.1988 15.3211 37.2479 15.1243 37.323 14.8022C37.3981 14.4801 37.4949 14.1139 37.5931 13.7216C37.6894 13.349 37.7703 13.0246 37.8358 12.7484C37.9008 12.4855 37.9369 12.3451 37.9441 12.3203C37.9441 12.3203 37.9441 12.3203 37.9528 12.3203L43.0976 12.3423C43.5891 12.3481 44.0676 12.192 44.4524 11.9004C44.8344 11.6203 45.104 11.2239 45.2164 10.7772C45.2959 10.4606 45.3825 10.1164 45.4779 9.74753C45.5559 9.4502 45.6483 9.09092 45.7552 8.67383H43.4139L43.0687 9.94162Z" fill="#F90E13"/>
<path d="M45.4021 6.66946C45.2001 6.43064 44.9428 6.23972 44.6503 6.1117C44.3579 5.98368 44.0382 5.92204 43.7165 5.93163H38.8303C37.8067 5.93163 37.098 6.45288 36.7042 7.49538C36.6912 7.54907 36.6681 7.63303 36.6406 7.74729H45.8672C45.8397 7.34928 45.6764 6.97076 45.4021 6.66946Z" fill="#F90E13"/>
<path d="M56.2412 6.6682C56.0204 6.42783 55.7464 6.2371 55.439 6.10976C55.1315 5.98242 54.7983 5.92162 54.4632 5.93175H49.3473C48.8416 5.9181 48.3453 6.06399 47.9355 6.34676C47.5257 6.62953 47.2254 7.03335 47.0811 7.4955L47.0176 7.7474H56.7525C56.7117 7.34376 56.532 6.96431 56.2412 6.6682V6.6682Z" fill="#F90E13"/>
<path d="M53.8722 9.30566C53.7538 9.77276 53.6209 10.2894 53.4735 10.8556C53.3262 11.4219 53.1447 12.1349 52.929 12.9948C52.9152 13.062 52.8755 13.1219 52.8178 13.1627C52.7617 13.2053 52.6916 13.2277 52.6199 13.226H48.6176C48.5725 13.2261 48.5279 13.2177 48.4862 13.2013C48.444 13.1849 48.406 13.16 48.375 13.1283C48.344 13.0982 48.3212 13.0613 48.3085 13.0209C48.2953 12.9809 48.2928 12.9383 48.3013 12.897C48.3345 12.78 48.4111 12.4841 48.5281 12.0188C48.6451 11.5535 48.7779 11.0346 48.9224 10.4702C49.0668 9.90583 49.1939 9.41165 49.3022 8.99318L49.3846 8.6752H46.7847L46.3399 10.3973C46.1656 11.0773 45.9484 11.9316 45.6885 12.9604C45.6184 13.258 45.6254 13.5673 45.7087 13.8618C45.7919 14.1562 45.9491 14.427 46.1665 14.6508C46.39 14.8932 46.667 15.0856 46.9776 15.2141C47.2882 15.3427 47.6248 15.4041 47.9633 15.3941H53.0489C53.5562 15.4187 54.0571 15.2769 54.4681 14.9924C54.8791 14.7079 55.1755 14.2978 55.3079 13.8303C55.3469 13.6844 55.4422 13.3141 55.5968 12.7208C55.7513 12.1276 55.9131 11.482 56.0936 10.7744C56.2742 10.0669 56.4273 9.4791 56.55 8.99731L56.6324 8.67383H54.0296C53.9921 8.82938 53.9401 9.0331 53.8722 9.30566Z" fill="#F90E13"/>
<path d="M64.2104 9.93594C64.1903 9.99602 64.1503 10.0482 64.0963 10.0846C64.0411 10.1203 63.975 10.1372 63.9085 10.1328H59.8311L60.1763 8.67503H57.6472L55.9414 15.3788H58.3968C58.417 15.3086 58.4661 15.1131 58.5413 14.7937C58.6164 14.4744 58.7088 14.1179 58.807 13.7283L59.0569 12.7207C59.1161 12.4729 59.1464 12.3435 59.1537 12.3284H60.6775L62.5985 15.3939H65.2229L63.3134 12.3242H64.2104C64.6985 12.3314 65.1743 12.1783 65.5579 11.8906C65.937 11.6077 66.2063 11.2124 66.3235 10.7674C66.4014 10.4489 66.4871 10.1053 66.5805 9.73634C66.6557 9.44038 66.7466 9.08248 66.8521 8.6709H64.5599L64.2104 9.93594Z" fill="#F90E13"/>
<path d="M66.5157 6.66874C66.3191 6.43225 66.0675 6.2426 65.7807 6.11479C65.4939 5.98697 65.1799 5.92449 64.8634 5.93229H60.0465C59.0354 5.93229 58.3359 6.45124 57.9478 7.48915L57.8828 7.74794H66.9707C66.9435 7.35121 66.7841 6.97311 66.5157 6.66874V6.66874Z" fill="#F90E13"/>
<path d="M77.3991 5.93164H68.6174L68.1523 7.74729H76.9326L77.3991 5.93164Z" fill="#F90E13"/>
<path d="M69.3984 15.3947H71.7455L73.5048 8.67578H71.1837L69.3984 15.3947Z" fill="#F90E13"/>
<path d="M77.6991 9.21423L77.6846 9.27617V9.29545C77.5996 9.58662 77.5892 9.89301 77.6543 10.1888C77.7177 10.4854 77.8544 10.7634 78.053 10.9996C78.2381 11.2321 78.4789 11.419 78.7553 11.5448C79.0317 11.6705 79.3356 11.7314 79.6417 11.7223H83.2628C83.3044 11.7212 83.3456 11.7302 83.3826 11.7484C83.4199 11.7673 83.452 11.7941 83.4765 11.8269C83.5021 11.8596 83.5185 11.898 83.5242 11.9384C83.5289 11.9792 83.5224 12.0205 83.5054 12.0582C83.4953 12.0953 83.478 12.1628 83.4563 12.2578C83.4346 12.3527 83.4086 12.4574 83.3797 12.5702C83.3509 12.6831 83.3162 12.8221 83.2729 12.9914C83.2557 13.051 83.2181 13.1034 83.166 13.1401C83.1135 13.1762 83.0501 13.1951 82.9854 13.1938H76.6851C76.6707 13.2654 76.636 13.414 76.5797 13.6398C76.5234 13.8656 76.4598 14.1133 76.3919 14.3845C76.3241 14.6557 76.2403 14.9861 76.1406 15.3908H83.3162C83.8021 15.3975 84.2753 15.2433 84.6551 14.9544C85.0351 14.6657 85.3063 14.2672 85.4278 13.8187C85.438 13.7623 85.4683 13.6412 85.5174 13.454C85.5665 13.2668 85.6185 13.063 85.6748 12.8442L85.8193 12.2729C85.8611 12.1105 85.8814 12.0251 85.8814 12.0155C85.886 12.0094 85.8889 12.0023 85.89 11.9948C85.9701 11.704 85.9784 11.3995 85.9145 11.1051C85.8507 10.8106 85.7162 10.5343 85.5217 10.2976C85.3395 10.0607 85.0998 9.86953 84.8231 9.74031C84.5464 9.61109 84.241 9.54772 83.9329 9.55561H80.3365C80.2951 9.55691 80.2541 9.54889 80.2166 9.53221C80.1796 9.51488 80.1474 9.4894 80.1227 9.45788C80.0958 9.42547 80.0766 9.3879 80.0664 9.34774C80.0561 9.30758 80.0552 9.26579 80.0635 9.22524C80.0736 9.18808 80.0909 9.122 80.1155 9.02565C80.14 8.92929 80.1646 8.82605 80.1935 8.71317L80.2036 8.67188H77.845C77.7771 8.92653 77.7294 9.10548 77.6991 9.21423Z" fill="#F90E13"/>
<path d="M86.998 7.65782L87.1858 6.92412C87.2542 6.65983 87.338 6.329 87.4371 5.93164H80.2543C79.2741 5.93164 78.575 6.44142 78.1571 7.46097C78.1427 7.51328 78.1181 7.61102 78.082 7.74729H86.9778C86.9836 7.71701 86.9908 7.69086 86.998 7.65782Z" fill="#F90E13"/>
<path d="M105.562 5.93164H102.611L101.744 7.74729H104.633L105.562 5.93164Z" fill="#F90E13"/>
<path d="M99.1434 5.93164H96.7891L96.9075 7.74729H99.2734L99.1434 5.93164Z" fill="#F90E13"/>
<path d="M94.31 5.93164H91.6523L91.765 7.74729H94.388L94.31 5.93164Z" fill="#F90E13"/>
<path d="M99.6017 12.2727L99.3431 8.67578H96.6147L94.5897 12.4626L94.428 8.68266H91.8281L92.1286 13.5212C92.159 14.0347 92.3966 14.517 92.7915 14.8674C93.1725 15.2167 93.6827 15.4086 94.2113 15.4015H95.647L97.1997 12.3732L97.3831 15.4015H100.783L104.18 8.68266H101.307L99.6017 12.2727Z" fill="#F90E13"/>
<path d="M111.133 12.7847L110.463 15.4002H112.816L114.52 8.67578H112.179L111.133 12.7847Z" fill="#F90E13"/>
<path d="M103.928 15.3947H106.26L106.923 12.793H110.44L110.999 10.6181H107.471L107.965 8.67578H105.649L103.928 15.3947Z" fill="#F90E13"/>
<path d="M115.216 5.93164H107.994C107.018 5.93164 106.336 6.45289 105.949 7.49539L105.883 7.74729H114.75L115.216 5.93164Z" fill="#F90E13"/>
<path d="M122.996 10.8405L121.074 8.67383H115.624L113.914 15.3927H116.27L117.941 8.74541L122.245 13.6266L121.803 15.3941H124.129L125.831 8.6752H123.513L122.996 10.8405Z" fill="#F90E13"/>
<path d="M126.527 5.93164H124.172L123.738 7.74729H126.068L126.527 5.93164Z" fill="#F90E13"/>
<path d="M118.638 5.93164H118.006C117.033 5.93164 116.339 6.45289 115.923 7.49539L115.859 7.74729H120.25L118.638 5.93164Z" fill="#F90E13"/>
<path d="M136.154 6.66882C135.951 6.43138 135.693 6.24152 135.401 6.11385C135.109 5.98617 134.789 5.92409 134.468 5.93237H129.023C128.699 5.93165 128.384 6.03277 128.126 6.22007C127.862 6.39733 127.674 6.6585 127.594 6.95652C127.592 6.9636 127.592 6.97146 127.594 6.97854C127.586 7.0102 127.522 7.26624 127.402 7.74114H136.619C136.589 7.34535 136.426 6.96933 136.154 6.66882V6.66882Z" fill="#F90E13"/>
<path d="M133.547 10.6724L133.131 12.3036C133.007 12.7936 132.928 13.0997 132.893 13.2217H128.469C128.714 12.26 128.918 11.4593 129.083 10.8197C129.248 10.18 129.396 9.59914 129.528 9.07698L129.63 8.6709H127.162L126.584 10.9642L125.862 13.826L125.465 15.3898H133.067C134.086 15.3898 134.793 14.8685 135.185 13.826C135.443 12.7964 135.659 11.9416 135.832 11.2615L136.305 9.40322C136.383 9.09074 136.449 8.8526 136.491 8.6709H134.057C133.857 9.46516 133.686 10.1369 133.547 10.6724Z" fill="#F90E13"/>
<path d="M136.515 12.9654C136.436 13.2585 136.433 13.5657 136.506 13.8602C136.581 14.1549 136.73 14.4279 136.94 14.6558C137.14 14.8948 137.395 15.0861 137.686 15.2147C137.978 15.3417 138.297 15.4029 138.618 15.3936H144.447C144.649 14.6118 144.83 13.8914 144.992 13.2325H139.245C139.202 13.2339 139.16 13.2259 139.122 13.2091C139.083 13.1923 139.05 13.1668 139.024 13.1347C138.995 13.1033 138.974 13.0661 138.963 13.026C138.954 12.9856 138.954 12.9438 138.963 12.9035L139.252 11.7527H143.292L143.813 9.58603H139.798L140.028 8.68164H137.601L136.515 12.9654Z" fill="#F90E13"/>
<path d="M146.847 5.93164H140.026C139.004 5.93164 138.295 6.45289 137.899 7.49539L137.836 7.74729H146.392L146.847 5.93164Z" fill="#F90E13"/>
<path d="M153.742 9.93594C153.723 9.99651 153.683 10.049 153.628 10.0846C153.573 10.1203 153.507 10.1372 153.44 10.1328H149.358L149.704 8.67503H147.176L145.469 15.3788H147.924C147.944 15.3086 147.993 15.1131 148.069 14.7937C148.144 14.4744 148.236 14.1179 148.334 13.7283C148.433 13.3387 148.515 13.0015 148.584 12.7207C148.643 12.4729 148.675 12.3435 148.681 12.3284H150.205L152.126 15.3939H154.752L152.845 12.3242H153.743C154.231 12.3314 154.707 12.1783 155.09 11.8906C155.469 11.6077 155.738 11.2124 155.855 10.7674C155.933 10.4489 156.019 10.1053 156.112 9.73634C156.187 9.44038 156.278 9.08248 156.385 8.6709H154.092L153.742 9.93594Z" fill="#F90E13"/>
<path d="M156.045 6.66885C155.848 6.43179 155.596 6.2418 155.308 6.11396C155.02 5.98612 154.706 5.92395 154.388 5.9324H149.576C148.565 5.9324 147.866 6.45135 147.479 7.48926L147.412 7.74805H156.5C156.472 7.35147 156.313 6.97357 156.045 6.66885V6.66885Z" fill="#F90E13"/>
</g>
<defs>
<clipPath id="clip0_145_1298">
<rect width="157.5" height="20.9055" fill="white" transform="translate(-1 0.210938)"/>
</clipPath>
</defs>
</svg>
