<svg width="12" height="12" viewBox="0 0 12 12" fill="none" xmlns="http://www.w3.org/2000/svg">
<path fill-rule="evenodd" clip-rule="evenodd" d="M11.8996 1.0001C11.8996 0.503041 11.4967 0.100098 10.9996 0.100098C10.5026 0.100098 10.0996 0.503041 10.0996 1.0001V11.0001C10.0996 11.4972 10.5026 11.9001 10.9996 11.9001C11.4967 11.9001 11.8996 11.4972 11.8996 11.0001V1.0001ZM5.19844 6.2999C5.19844 5.80285 4.79549 5.3999 4.29844 5.3999C3.80138 5.3999 3.39844 5.80285 3.39844 6.2999V10.9999C3.39844 11.497 3.80138 11.8999 4.29844 11.8999C4.79549 11.8999 5.19844 11.497 5.19844 10.9999V6.2999ZM0.999609 8.1001C1.49667 8.1001 1.89961 8.50304 1.89961 9.0001V11.0001C1.89961 11.4972 1.49667 11.9001 0.999609 11.9001C0.502553 11.9001 0.0996094 11.4972 0.0996094 11.0001V9.0001C0.0996094 8.50304 0.502553 8.1001 0.999609 8.1001ZM8.59883 3.6998C8.59883 3.20275 8.19588 2.7998 7.69883 2.7998C7.20177 2.7998 6.79883 3.20275 6.79883 3.6998V10.9998C6.79883 11.4969 7.20177 11.8998 7.69883 11.8998C8.19588 11.8998 8.59883 11.4969 8.59883 10.9998V3.6998Z" fill="white"/>
</svg>
