<svg width="16" height="16" viewBox="0 0 16 16" fill="none" xmlns="http://www.w3.org/2000/svg">
<path fill-rule="evenodd" clip-rule="evenodd" d="M3.70939 1.66394C3.97566 1.39767 3.97566 0.965966 3.70939 0.6997C3.44312 0.433433 3.01142 0.433433 2.74515 0.6997L0.6997 2.74515C0.433433 3.01142 0.433433 3.44312 0.6997 3.70939C0.965966 3.97566 1.39767 3.97566 1.66394 3.70939L3.70939 1.66394ZM13.2548 0.6997C12.9886 0.433433 12.5569 0.433433 12.2906 0.6997C12.0243 0.965966 12.0243 1.39767 12.2906 1.66394L14.3361 3.70939C14.6023 3.97566 15.034 3.97566 15.3003 3.70939C15.5666 3.44312 15.5666 3.01142 15.3003 2.74515L13.2548 0.6997ZM8.00002 3.22731C4.98756 3.22731 2.54548 5.6694 2.54548 8.68186C2.54548 11.6943 4.98756 14.1364 8.00002 14.1364C11.0125 14.1364 13.4546 11.6943 13.4546 8.68186C13.4546 5.6694 11.0125 3.22731 8.00002 3.22731ZM1.18184 8.68186C1.18184 4.91628 4.23444 1.86368 8.00002 1.86368C11.7656 1.86368 14.8182 4.91628 14.8182 8.68186C14.8182 12.4474 11.7656 15.5 8.00002 15.5C4.23444 15.5 1.18184 12.4474 1.18184 8.68186ZM7.99998 4.59092C8.37654 4.59092 8.6818 4.89618 8.6818 5.27274V8.31706L10.4236 9.47812C10.7369 9.68697 10.8216 10.1103 10.6128 10.4236C10.4039 10.737 9.98061 10.8217 9.66728 10.6128L7.92523 9.45167C7.73853 9.3271 7.58521 9.15821 7.47935 8.96029C7.37351 8.76241 7.31814 8.54146 7.31816 8.31706V5.27274C7.31816 4.89618 7.62342 4.59092 7.99998 4.59092Z" fill="white"/>
</svg>
