<svg width="16" height="13" viewBox="0 0 16 13" fill="none" xmlns="http://www.w3.org/2000/svg">
<path fill-rule="evenodd" clip-rule="evenodd" d="M4.47342 3.23276C5.56168 2.78065 6.72874 2.54867 7.90718 2.5502L7.90822 2.5502C10.3869 2.5502 12.6288 3.55655 14.2503 5.18494C14.5621 5.49802 15.0686 5.49909 15.3817 5.18734C15.6948 4.87558 15.6959 4.36905 15.3841 4.05597C13.4747 2.13847 10.8298 0.950345 7.90874 0.950204L7.90926 0.950204L7.90822 1.7502V0.950204L7.90874 0.950204C6.5191 0.948462 5.14289 1.22206 3.85959 1.75519C2.57612 2.28839 1.41103 3.07062 0.431619 4.05669C0.120261 4.37016 0.121977 4.87669 0.435454 5.18805C0.748931 5.49941 1.25546 5.49769 1.56682 5.18422C2.39727 4.34812 3.38516 3.68486 4.47342 3.23276ZM5.57132 6.02646C6.30969 5.71123 7.10438 5.5492 7.90723 5.5502H7.90921C8.71206 5.5492 9.50675 5.71123 10.2451 6.02646C10.9835 6.34169 11.6502 6.80355 12.2048 7.38407C12.51 7.70354 13.0164 7.71511 13.3358 7.40991C13.6553 7.10471 13.6669 6.59831 13.3617 6.27883C12.6575 5.5417 11.8109 4.95522 10.8733 4.55495C9.93607 4.1548 8.92733 3.94907 7.90822 3.9502L7.90921 3.9502L7.90822 4.7502L7.90723 3.9502L7.90822 3.9502C6.88911 3.94907 5.88037 4.1548 4.94309 4.55495C4.00551 4.95522 3.15897 5.5417 2.45476 6.27883C2.14956 6.59831 2.16113 7.10471 2.4806 7.40991C2.80007 7.71511 3.30647 7.70354 3.61168 7.38407C4.16626 6.80355 4.83294 6.34169 5.57132 6.02646ZM6.69003 8.81245C7.07242 8.63915 7.48749 8.54973 7.90732 8.5502L7.90822 8.5502C8.79245 8.5502 9.58525 8.93851 10.1269 9.55582C10.4183 9.88794 10.9237 9.92095 11.2558 9.62955C11.588 9.33815 11.621 8.8327 11.3296 8.50058C10.4973 7.552 9.27276 6.95034 7.90867 6.9502L7.90912 6.9502L7.90822 7.7502V6.9502H7.90867C7.26059 6.94954 6.61987 7.0876 6.02958 7.35512C5.43915 7.6227 4.91285 8.01358 4.48607 8.5015C4.19518 8.83406 4.22896 9.33946 4.56152 9.63035C4.89407 9.92124 5.39948 9.88746 5.69037 9.55491C5.96678 9.23891 6.30764 8.98575 6.69003 8.81245ZM9 11.2002C9 11.7525 8.55228 12.2002 8 12.2002C7.44772 12.2002 7 11.7525 7 11.2002C7 10.6479 7.44772 10.2002 8 10.2002C8.55228 10.2002 9 10.6479 9 11.2002Z" fill="white"/>
</svg>
