<svg width="10" height="14" viewBox="0 0 10 14" fill="none" xmlns="http://www.w3.org/2000/svg">
<path fill-rule="evenodd" clip-rule="evenodd" d="M4.69902 0.0694409C4.92705 -0.0419712 5.19992 -0.0179277 5.40387 0.131547L9.73077 3.30269C9.90283 3.42879 10.0029 3.62765 9.99994 3.83781C9.99701 4.04796 9.89148 4.24409 9.71597 4.36557L5.90996 7L9.71597 9.63442C9.89148 9.75591 9.99701 9.95204 9.99994 10.1622C10.0029 10.3723 9.90283 10.5712 9.73077 10.6973L5.40387 13.8685C5.19992 14.0179 4.92705 14.042 4.69902 13.9306C4.47099 13.8191 4.32695 13.5914 4.32695 13.3423V8.09571L1.06218 10.3555C0.758837 10.5655 0.338749 10.4954 0.123884 10.199C-0.0909817 9.90254 -0.0192594 9.49204 0.28408 9.28208L3.58105 7L0.28408 4.71792C-0.0192594 4.50796 -0.0909817 4.09746 0.123884 3.80104C0.338749 3.50462 0.758837 3.43453 1.06218 3.6445L4.32695 5.90429V0.657722C4.32695 0.408596 4.47099 0.180853 4.69902 0.0694409ZM5.6731 8.44806L8.18441 10.1863L5.6731 12.0268V8.44806ZM5.6731 5.55194V1.97316L8.18442 3.81367L5.6731 5.55194Z" fill="white"/>
</svg>
