<svg width="22" height="23" viewBox="0 0 22 23" fill="none" xmlns="http://www.w3.org/2000/svg">
<path d="M5.58463 4.91707V1.66707C5.58463 1.37976 5.69877 1.10421 5.90194 0.901041C6.1051 0.697877 6.38065 0.58374 6.66797 0.58374H15.3346C15.622 0.58374 15.8975 0.697877 16.1007 0.901041C16.3038 1.10421 16.418 1.37976 16.418 1.66707V4.91707H20.7513C21.0386 4.91707 21.3142 5.03121 21.5173 5.23437C21.7205 5.43754 21.8346 5.71309 21.8346 6.00041V21.1671C21.8346 21.4544 21.7205 21.7299 21.5173 21.9331C21.3142 22.1363 21.0386 22.2504 20.7513 22.2504H1.2513C0.963984 22.2504 0.688434 22.1363 0.48527 21.9331C0.282105 21.7299 0.167969 21.4544 0.167969 21.1671V6.00041C0.167969 5.71309 0.282105 5.43754 0.48527 5.23437C0.688434 5.03121 0.963984 4.91707 1.2513 4.91707H5.58463ZM2.33464 15.7504V20.0837H19.668V15.7504H2.33464ZM9.91797 11.4171V13.5837H12.0846V11.4171H9.91797ZM7.7513 2.75041V4.91707H14.2513V2.75041H7.7513Z" fill="#0A2647"/>
</svg>
