<svg width="39" height="44" viewBox="0 0 39 44" fill="none" xmlns="http://www.w3.org/2000/svg">
<path d="M25.4463 4.03806L27.3663 0.574056C27.3909 0.52967 27.4065 0.480881 27.4122 0.430475C27.4179 0.380069 27.4136 0.329034 27.3996 0.280283C27.3855 0.231533 27.3621 0.186021 27.3305 0.146347C27.2988 0.106673 27.2597 0.0736137 27.2153 0.0490565C27.171 0.0244993 27.1222 0.00892515 27.0718 0.00322335C27.0214 -0.00247845 26.9703 0.00180379 26.9216 0.0158254C26.8728 0.0298471 26.8273 0.0533335 26.7876 0.084944C26.748 0.116554 26.7149 0.15567 26.6903 0.200057L24.7503 3.70006C23.0943 2.97395 21.3056 2.59907 19.4973 2.59907C17.6891 2.59907 15.9004 2.97395 14.2443 3.70006L12.3043 0.200057C12.2547 0.109883 12.1714 0.0431042 12.0725 0.0144111C11.9737 -0.0142819 11.8675 -0.00253912 11.7773 0.0470564C11.6872 0.0966519 11.6204 0.180037 11.5917 0.278869C11.563 0.377701 11.5747 0.483883 11.6243 0.574056L13.5443 4.03806C11.7175 4.93904 10.1741 6.32566 9.08324 8.04587C7.99241 9.76608 7.39632 11.7535 7.36034 13.7901H31.6343C31.598 11.753 31.0013 9.76538 29.9097 8.04512C28.8182 6.32487 27.2739 4.93849 25.4463 4.03806ZM13.8963 9.34806C13.6957 9.34806 13.4996 9.28854 13.3328 9.17703C13.166 9.06552 13.036 8.90704 12.9593 8.72163C12.8826 8.53623 12.8627 8.33225 12.902 8.1355C12.9413 7.93875 13.038 7.75807 13.18 7.61634C13.3221 7.47461 13.5029 7.3782 13.6997 7.3393C13.8966 7.3004 14.1005 7.32076 14.2858 7.39782C14.471 7.47487 14.6292 7.60515 14.7404 7.77217C14.8516 7.93918 14.9107 8.13542 14.9103 8.33606C14.9098 8.60464 14.8027 8.86204 14.6126 9.05177C14.4225 9.2415 14.1649 9.34806 13.8963 9.34806ZM25.1003 9.34806C24.8997 9.34806 24.7036 9.28854 24.5368 9.17703C24.37 9.06552 24.24 8.90704 24.1633 8.72163C24.0866 8.53623 24.0667 8.33225 24.106 8.1355C24.1453 7.93875 24.242 7.75807 24.384 7.61634C24.5261 7.47461 24.7069 7.3782 24.9037 7.3393C25.1006 7.3004 25.3045 7.32076 25.4898 7.39782C25.675 7.47487 25.8332 7.60515 25.9444 7.77217C26.0556 7.93918 26.1147 8.13542 26.1143 8.33606C26.1138 8.60464 26.0067 8.86204 25.8166 9.05177C25.6265 9.2415 25.3689 9.34806 25.1003 9.34806ZM7.35634 32.3421C7.35582 32.7282 7.43152 33.1106 7.5791 33.4675C7.72669 33.8243 7.94326 34.1485 8.21639 34.4214C8.48953 34.6944 8.81386 34.9107 9.17078 35.0581C9.5277 35.2054 9.9102 35.2808 10.2963 35.2801H12.2423V41.2801C12.2423 42.0017 12.529 42.6938 13.0393 43.2041C13.5496 43.7144 14.2417 44.0011 14.9633 44.0011C15.685 44.0011 16.3771 43.7144 16.8874 43.2041C17.3977 42.6938 17.6843 42.0017 17.6843 41.2801V35.2801H21.3123V41.2801C21.3123 42.0014 21.5989 42.6933 22.109 43.2034C22.6191 43.7135 23.311 44.0001 24.0323 44.0001C24.7537 44.0001 25.4456 43.7135 25.9557 43.2034C26.4658 42.6933 26.7523 42.0014 26.7523 41.2801V35.2801H28.7003C29.086 35.2803 29.4679 35.2046 29.8242 35.0571C30.1805 34.9097 30.5043 34.6934 30.777 34.4207C31.0497 34.148 31.2659 33.8243 31.4134 33.4679C31.5608 33.1116 31.6366 32.7297 31.6363 32.3441V14.7501H7.35634V32.3421ZM3.62234 14.2821C2.90093 14.2831 2.2094 14.5703 1.69948 15.0806C1.18955 15.5909 0.902873 16.2826 0.902344 17.0041V28.3421C0.902344 28.6993 0.972698 29.053 1.10939 29.383C1.24608 29.713 1.44644 30.0128 1.69901 30.2654C1.95159 30.518 2.25144 30.7183 2.58144 30.855C2.91145 30.9917 3.26515 31.0621 3.62234 31.0621C3.97954 31.0621 4.33324 30.9917 4.66324 30.855C4.99325 30.7183 5.2931 30.518 5.54567 30.2654C5.79825 30.0128 5.9986 29.713 6.1353 29.383C6.27199 29.053 6.34234 28.6993 6.34234 28.3421V17.0041C6.34128 16.283 6.05437 15.5918 5.5445 15.0819C5.03464 14.572 4.34341 14.2851 3.62234 14.2841V14.2821ZM35.3663 14.2821C34.6449 14.2831 33.9534 14.5703 33.4435 15.0806C32.9335 15.5909 32.6469 16.2826 32.6463 17.0041V28.3421C32.6463 28.6993 32.7167 29.053 32.8534 29.383C32.9901 29.713 33.1904 30.0128 33.443 30.2654C33.6956 30.518 33.9954 30.7183 34.3254 30.855C34.6554 30.9917 35.0091 31.0621 35.3663 31.0621C35.7235 31.0621 36.0772 30.9917 36.4072 30.855C36.7372 30.7183 37.0371 30.518 37.2897 30.2654C37.5422 30.0128 37.7426 29.713 37.8793 29.383C38.016 29.053 38.0863 28.6993 38.0863 28.3421V17.0041C38.0853 16.283 37.7984 15.5918 37.2885 15.0819C36.7786 14.572 36.0874 14.2851 35.3663 14.2841V14.2821Z" fill="#0A2647"/>
</svg>
