<svg width="157" height="47" viewBox="0 0 157 47" fill="none" xmlns="http://www.w3.org/2000/svg">
<path d="M151.027 0.107422H5.83343C2.62237 0.107422 0 2.72979 0 5.88734V40.7274C0 43.9384 2.62237 46.5608 5.83343 46.5608H151.027C154.238 46.5608 156.86 43.9384 156.86 40.7274V5.88734C156.807 2.72979 154.238 0.107422 151.027 0.107422Z" fill="black"/>
<path d="M55.0702 11.9881C55.0702 12.9515 54.8026 13.7542 54.2139 14.2894C53.5717 14.9851 52.7154 15.3062 51.6451 15.3062C50.6282 15.3062 49.7719 14.9316 49.0762 14.2359C48.3805 13.5402 48.0059 12.6839 48.0059 11.667C48.0059 10.6502 48.3805 9.79392 49.0762 9.09819C49.7719 8.40246 50.6282 8.02783 51.6451 8.02783C52.1267 8.02783 52.6084 8.13487 53.09 8.29542C53.5182 8.50949 53.8928 8.72356 54.1604 9.09819L53.5717 9.68688C53.09 9.1517 52.5014 8.88412 51.6451 8.88412C50.8958 8.88412 50.2536 9.1517 49.7184 9.63336C49.1833 10.1685 48.9157 10.8108 48.9157 11.667C48.9157 12.4698 49.1833 13.1655 49.7184 13.7007C50.2536 14.2359 50.8958 14.45 51.6451 14.45C52.4478 14.45 53.09 14.1824 53.5717 13.6472C53.8928 13.3261 54.1069 12.8444 54.1604 12.2557H51.6451V11.3994H55.0167C55.0702 11.667 55.0702 11.8276 55.0702 11.9881Z" fill="white" stroke="white" stroke-width="0.102935" stroke-miterlimit="10"/>
<path d="M60.4248 9.09847H57.2672V11.2927H60.1037V12.149H57.2672V14.3432H60.4248V15.1995H56.3574V8.24219H60.4248V9.09847Z" fill="white" stroke="white" stroke-width="0.102935" stroke-miterlimit="10"/>
<path d="M64.2212 15.1995H63.3114V9.09847H61.3848V8.24219H66.2014V9.09847H64.2212V15.1995Z" fill="white" stroke="white" stroke-width="0.102935" stroke-miterlimit="10"/>
<path d="M69.6289 15.1995V8.24219H70.5387V15.1995H69.6289Z" fill="white" stroke="white" stroke-width="0.102935" stroke-miterlimit="10"/>
<path d="M74.4986 15.1995H73.5888V9.09847H71.6621V8.24219H76.4252V9.09847H74.4986V15.1995Z" fill="white" stroke="white" stroke-width="0.102935" stroke-miterlimit="10"/>
<path d="M85.5217 14.2896C84.826 14.9853 83.9697 15.36 82.9529 15.36C81.936 15.36 81.0798 14.9853 80.384 14.2896C79.6883 13.5939 79.3672 12.7376 79.3672 11.7207C79.3672 10.7039 79.6883 9.84763 80.384 9.1519C81.0798 8.45617 81.936 8.08154 82.9529 8.08154C83.9697 8.08154 84.826 8.45617 85.5217 9.1519C86.2175 9.84763 86.5386 10.7039 86.5386 11.7207C86.5386 12.7376 86.2175 13.5939 85.5217 14.2896ZM81.0798 13.7009C81.6149 14.2361 82.2036 14.5037 82.9529 14.5037C83.7021 14.5037 84.3443 14.2361 84.826 13.7009C85.3612 13.1657 85.5752 12.5235 85.5752 11.7207C85.5752 10.918 85.3077 10.2223 84.826 9.74059C84.2908 9.20542 83.7021 8.93783 82.9529 8.93783C82.2036 8.93783 81.5614 9.20542 81.0798 9.74059C80.5446 10.2758 80.3305 10.918 80.3305 11.7207C80.3305 12.5235 80.5446 13.1657 81.0798 13.7009Z" fill="white" stroke="white" stroke-width="0.102935" stroke-miterlimit="10"/>
<path d="M87.8223 15.1995V8.24219H88.8926L92.2642 13.6475H92.3178L92.2642 12.3095V8.24219H93.174V15.1995H92.2642L88.7321 9.52661H88.6785L88.7321 10.8646V15.1995H87.8223Z" fill="white" stroke="white" stroke-width="0.102935" stroke-miterlimit="10"/>
<path d="M79.1504 25.3673C76.421 25.3673 74.1733 27.4545 74.1733 30.2909C74.1733 33.1274 76.421 35.2146 79.1504 35.2146C81.8798 35.2146 84.1276 33.1274 84.1276 30.2909C84.1276 27.4545 81.8798 25.3673 79.1504 25.3673ZM79.1504 33.2879C77.6519 33.2879 76.3675 32.057 76.3675 30.2909C76.3675 28.5249 77.6519 27.2939 79.1504 27.2939C80.6489 27.2939 81.9334 28.5249 81.9334 30.2909C81.9334 32.057 80.6489 33.2879 79.1504 33.2879ZM68.3399 25.3673C65.6105 25.3673 63.3627 27.4545 63.3627 30.2909C63.3627 33.1274 65.6105 35.2146 68.3399 35.2146C71.0693 35.2146 73.317 33.1274 73.317 30.2909C73.317 27.4545 71.0693 25.3673 68.3399 25.3673ZM68.3399 33.2879C66.8414 33.2879 65.5569 32.057 65.5569 30.2909C65.5569 28.5249 66.8414 27.2939 68.3399 27.2939C69.8384 27.2939 71.1228 28.5249 71.1228 30.2909C71.1228 32.057 69.8384 33.2879 68.3399 33.2879ZM55.4421 26.8658V28.953H60.4728C60.3122 30.1304 59.9376 30.9867 59.3489 31.5754C58.5996 32.3246 57.4758 33.1274 55.4956 33.1274C52.3916 33.1274 49.9833 30.612 49.9833 27.5615C49.9833 24.511 52.3916 21.9957 55.4956 21.9957C57.1547 21.9957 58.3856 22.6379 59.2954 23.4942L60.7939 21.9957C59.563 20.8183 57.8504 19.855 55.5491 19.855C51.3212 19.855 47.7891 23.2801 47.7891 27.508C47.7891 31.7359 51.3212 35.161 55.5491 35.161C57.8504 35.161 59.563 34.4118 60.9009 33.0203C62.2924 31.6289 62.7205 29.7022 62.7205 28.0967C62.7205 27.6151 62.667 27.1869 62.6135 26.8123H55.4421V26.8658ZM108.104 28.5249C107.675 27.401 106.444 25.3673 103.876 25.3673C101.307 25.3673 99.2196 27.3475 99.2196 30.2909C99.2196 33.0739 101.307 35.2146 104.143 35.2146C106.391 35.2146 107.729 33.8231 108.264 33.0203L106.605 31.8965C106.07 32.6992 105.267 33.2879 104.197 33.2879C103.073 33.2879 102.324 32.8063 101.788 31.7894L108.371 29.06L108.104 28.5249ZM101.36 30.1304C101.307 28.2037 102.859 27.2404 103.929 27.2404C104.785 27.2404 105.535 27.6686 105.749 28.3108L101.36 30.1304ZM96.0085 34.947H98.2028V20.4437H96.0085V34.947ZM92.4228 26.4912H92.3693C91.8877 25.9025 90.9243 25.3673 89.7469 25.3673C87.2851 25.3673 85.0374 27.5615 85.0374 30.3445C85.0374 33.1274 87.2851 35.2681 89.7469 35.2681C90.9243 35.2681 91.8877 34.7329 92.3693 34.1442H92.4228V34.8399C92.4228 36.7131 91.406 37.7299 89.8005 37.7299C88.4625 37.7299 87.6598 36.7666 87.2851 35.9638L85.412 36.7666C85.9472 38.051 87.3922 39.7101 89.8005 39.7101C92.3693 39.7101 94.51 38.2116 94.51 34.5724V25.6884H92.4764V26.4912H92.4228ZM89.961 33.2879C88.4625 33.2879 87.2316 32.057 87.2316 30.2909C87.2316 28.5249 88.4625 27.2939 89.961 27.2939C91.4595 27.2939 92.5834 28.5784 92.5834 30.2909C92.5834 32.057 91.406 33.2879 89.961 33.2879ZM118.272 20.4437H113.081V34.947H115.221V29.4347H118.272C120.68 29.4347 123.035 27.6686 123.035 24.9392C123.035 22.2098 120.68 20.4437 118.272 20.4437ZM118.325 27.401H115.221V22.4238H118.325C119.931 22.4238 120.841 23.7618 120.841 24.9392C120.841 26.063 119.931 27.401 118.325 27.401ZM131.705 25.3138C130.153 25.3138 128.494 26.0095 127.852 27.5615L129.778 28.3643C130.206 27.5615 130.956 27.2939 131.758 27.2939C132.882 27.2939 134.006 27.9897 134.06 29.1671V29.3276C133.685 29.1135 132.829 28.7924 131.812 28.7924C129.725 28.7924 127.637 29.9163 127.637 32.057C127.637 33.9837 129.35 35.2681 131.223 35.2681C132.668 35.2681 133.471 34.6259 134.006 33.8231H134.06V34.947H136.147V29.3811C136.147 26.7588 134.22 25.3138 131.705 25.3138ZM131.437 33.2879C130.742 33.2879 129.725 32.9133 129.725 32.057C129.725 30.9332 130.956 30.505 132.026 30.505C132.989 30.505 133.417 30.7191 134.006 30.9867C133.846 32.3246 132.722 33.2879 131.437 33.2879ZM143.746 25.6349L141.285 31.95H141.231L138.609 25.6349H136.254L140.107 34.4118L137.913 39.2819H140.161L146.101 25.5814H143.746V25.6349ZM124.212 34.947H126.353V20.4437H124.212V34.947Z" fill="white"/>
<path d="M12.1504 8.83086C11.8293 9.20549 11.6152 9.74066 11.6152 10.4364V36.1249C11.6152 36.8206 11.8293 37.4093 12.1504 37.7304L12.2574 37.8375L26.6537 23.4412V23.2806V23.1201L12.2039 8.77734L12.1504 8.83086Z" fill="url(#paint0_linear_152_591)"/>
<path d="M31.4162 28.3117L26.5996 23.4951V23.3346V23.174L31.4162 18.3574L31.5232 18.4109L37.1961 21.622C38.8017 22.5318 38.8017 24.0303 37.1961 24.9936L31.5232 28.2047L31.4162 28.3117Z" fill="url(#paint1_linear_152_591)"/>
<path d="M31.5238 28.2581L26.6002 23.3345L12.1504 37.7843C12.6856 38.373 13.5954 38.4265 14.5587 37.8378L31.5238 28.2581Z" fill="url(#paint2_linear_152_591)"/>
<path d="M31.5238 18.4114L14.5587 8.77818C13.5419 8.18948 12.6856 8.29652 12.1504 8.8317L26.6537 23.335L31.5238 18.4114Z" fill="url(#paint3_linear_152_591)"/>
<path opacity="0.2" d="M31.4226 28.1509L14.5645 37.7306C13.6012 38.2657 12.7985 38.2122 12.2633 37.7306L12.1562 37.8376L12.2633 37.9446C12.7985 38.4263 13.6547 38.4798 14.5645 37.9446L31.5297 28.3114L31.4226 28.1509Z" fill="black"/>
<path opacity="0.12" d="M12.1543 37.6246C11.8332 37.25 11.6191 36.7148 11.6191 36.019V36.1796C11.6191 36.8753 11.8332 37.464 12.1543 37.7851L12.2614 37.6781L12.1543 37.6246Z" fill="black"/>
<path opacity="0.12" d="M37.1959 24.8332L31.416 28.1513L31.5231 28.2583L37.1959 25.0472C37.9987 24.5656 38.4268 23.9769 38.4268 23.3882C38.3198 23.8698 37.9452 24.405 37.1959 24.8332Z" fill="black"/>
<path opacity="0.25" d="M14.5583 8.9377L37.1963 21.8355C37.9456 22.2636 38.3202 22.7988 38.4272 23.334C38.4272 22.7453 37.9991 22.1031 37.1963 21.6749L14.5583 8.77714C12.9528 7.86734 11.6148 8.61659 11.6148 10.4897V10.6503C11.5613 8.77714 12.8993 8.02789 14.5583 8.9377Z" fill="white"/>
<defs>
<linearGradient id="paint0_linear_152_591" x1="25.3269" y1="10.2147" x2="5.8305" y2="29.7111" gradientUnits="userSpaceOnUse">
<stop stop-color="#00A0FF"/>
<stop offset="0.00657445" stop-color="#00A1FF"/>
<stop offset="0.2601" stop-color="#00BEFF"/>
<stop offset="0.5122" stop-color="#00D2FF"/>
<stop offset="0.7604" stop-color="#00DFFF"/>
<stop offset="1" stop-color="#00E3FF"/>
</linearGradient>
<linearGradient id="paint1_linear_152_591" x1="39.3071" y1="23.3329" x2="11.1972" y2="23.3329" gradientUnits="userSpaceOnUse">
<stop stop-color="#FFE000"/>
<stop offset="0.4087" stop-color="#FFBD00"/>
<stop offset="0.7754" stop-color="#FFA500"/>
<stop offset="1" stop-color="#FF9C00"/>
</linearGradient>
<linearGradient id="paint2_linear_152_591" x1="28.8436" y1="25.9984" x2="2.40497" y2="52.4371" gradientUnits="userSpaceOnUse">
<stop stop-color="#FF3A44"/>
<stop offset="1" stop-color="#C31162"/>
</linearGradient>
<linearGradient id="paint3_linear_152_591" x1="8.47918" y1="0.301882" x2="20.2851" y2="12.1079" gradientUnits="userSpaceOnUse">
<stop stop-color="#32A071"/>
<stop offset="0.0685" stop-color="#2DA771"/>
<stop offset="0.4762" stop-color="#15CF74"/>
<stop offset="0.8009" stop-color="#06E775"/>
<stop offset="1" stop-color="#00F076"/>
</linearGradient>
</defs>
</svg>
